<svg width="17" height="16" viewBox="0 0 17 16" fill="none" xmlns="http://www.w3.org/2000/svg">
<g clip-path="url(#clip0_662_1855)">
<path d="M4.79793 10.0236C5.5056 10.7162 5.94946 11.5506 6.1029 12.3545C6.13503 12.5229 5.87668 12.7869 5.70764 12.7583C4.90058 12.6222 4.05688 12.1964 3.34921 11.5038C2.64154 10.8111 2.19768 9.97676 2.04424 9.17281C2.01211 9.00443 2.27046 8.74046 2.4395 8.76898C3.24656 8.9051 4.09026 9.33092 4.79793 10.0236Z" fill="url(#paint0_linear_662_1855)"/>
<path d="M4.79793 10.0236C5.5056 10.7162 5.94946 11.5506 6.1029 12.3545C6.13503 12.5229 5.87668 12.7869 5.70764 12.7583C4.90058 12.6222 4.05688 12.1964 3.34921 11.5038C2.64154 10.8111 2.19768 9.97676 2.04424 9.17281C2.01211 9.00443 2.27046 8.74046 2.4395 8.76898C3.24656 8.9051 4.09026 9.33092 4.79793 10.0236Z" fill="url(#paint1_linear_662_1855)"/>
<path d="M5.75741 8.38314C6.32484 9.4921 6.52092 10.6647 6.38276 11.685C6.35383 11.8987 5.94015 12.1104 5.74991 12.0088C4.84158 11.524 4.00528 10.679 3.43788 9.57C2.87047 8.46104 2.67436 7.28843 2.81253 6.2681C2.84145 6.05442 3.25513 5.84275 3.44538 5.9443C4.35367 6.42913 5.18997 7.27419 5.75741 8.38314Z" fill="url(#paint2_linear_662_1855)"/>
<path d="M2.80176 7.48343C2.87674 8.16908 3.08574 8.8818 3.4379 9.57005C4.00533 10.679 4.8416 11.5241 5.74993 12.0089C5.94014 12.1104 6.35382 11.8987 6.38278 11.6851C6.52094 10.6648 6.32486 9.49215 5.75743 8.3832C5.42331 7.73018 4.99589 7.16883 4.51548 6.71851L2.80176 7.48343Z" fill="url(#paint3_linear_662_1855)"/>
<path d="M12.2022 10.0236C11.4946 10.7162 11.0507 11.5506 10.8973 12.3545C10.8651 12.5229 11.1235 12.7869 11.2925 12.7583C12.0996 12.6222 12.9433 12.1964 13.651 11.5038C14.3586 10.8111 14.8025 9.97676 14.9559 9.17281C14.9881 9.00443 14.7297 8.74046 14.5607 8.76898C13.7536 8.9051 12.9099 9.33092 12.2022 10.0236Z" fill="url(#paint4_linear_662_1855)"/>
<path d="M12.2022 10.0236C11.4946 10.7162 11.0507 11.5506 10.8973 12.3545C10.8651 12.5229 11.1235 12.7869 11.2925 12.7583C12.0996 12.6222 12.9433 12.1964 13.651 11.5038C14.3586 10.8111 14.8025 9.97676 14.9559 9.17281C14.9881 9.00443 14.7297 8.74046 14.5607 8.76898C13.7536 8.9051 12.9099 9.33092 12.2022 10.0236Z" fill="url(#paint5_linear_662_1855)"/>
<path d="M11.2426 8.38314C10.6751 9.4921 10.4791 10.6647 10.6172 11.685C10.6461 11.8987 11.0598 12.1104 11.2501 12.0088C12.1584 11.524 12.9947 10.679 13.5621 9.57C14.1295 8.46104 14.3256 7.28843 14.1874 6.2681C14.1585 6.05442 13.7448 5.84275 13.5546 5.9443C12.6463 6.42913 11.81 7.27419 11.2426 8.38314Z" fill="url(#paint6_linear_662_1855)"/>
<path d="M14.1982 7.48343C14.1233 8.16908 13.9143 8.8818 13.5621 9.57005C12.9947 10.679 12.1584 11.5241 11.2501 12.0089C11.0599 12.1104 10.6462 11.8987 10.6172 11.6851C10.4791 10.6648 10.6751 9.49215 11.2426 8.3832C11.5767 7.73018 12.0041 7.16883 12.4845 6.71851L14.1982 7.48343Z" fill="url(#paint7_linear_662_1855)"/>
<path d="M8.50028 16C11.2557 16 13.4893 13.7663 13.4893 11.0109C13.4893 8.25552 11.2557 6.02185 8.50028 6.02185C5.7449 6.02185 3.51123 8.25552 3.51123 11.0109C3.51123 13.7663 5.7449 16 8.50028 16Z" fill="url(#paint8_linear_662_1855)"/>
<path d="M8.50007 14.9876C10.6963 14.9876 12.4767 13.2072 12.4767 11.0109C12.4767 8.8147 10.6963 7.0343 8.50007 7.0343C6.30383 7.0343 4.52344 8.8147 4.52344 11.0109C4.52344 13.2072 6.30383 14.9876 8.50007 14.9876Z" fill="url(#paint9_linear_662_1855)"/>
<path d="M8.50039 14.4248C10.3859 14.4248 11.9143 12.8964 11.9143 11.0109C11.9143 9.12541 10.3859 7.59692 8.50039 7.59692C6.61491 7.59692 5.08643 9.12541 5.08643 11.0109C5.08643 12.8964 6.61491 14.4248 8.50039 14.4248Z" fill="url(#paint10_linear_662_1855)"/>
<path d="M3.51123 11.0109C3.51123 13.7663 5.74489 16 8.50028 16C11.2557 16 13.4893 13.7663 13.4893 11.0109C13.4893 10.9916 13.4888 10.9723 13.4886 10.953H3.51195C3.51173 10.9723 3.51123 10.9916 3.51123 11.0109Z" fill="url(#paint11_linear_662_1855)"/>
<path d="M9.89941 15.8008C11.4715 15.3423 12.7224 14.1312 13.2361 12.5835L10.8062 10.1536L10.2584 10.1805L8.77991 8.70203L6.97803 12.8794L9.89941 15.8008Z" fill="url(#paint12_linear_662_1855)"/>
<path d="M10.5458 9.92685L9.56741 9.69046C9.4764 9.66846 9.39687 9.61328 9.34438 9.53573L8.78037 8.702C8.71213 8.60117 8.60763 8.54705 8.50008 8.53833C8.39254 8.54705 8.28801 8.60117 8.2198 8.702L7.65579 9.53573C7.60333 9.61328 7.5238 9.66846 7.43276 9.69046L6.45434 9.92685C6.18893 9.99097 6.07834 10.3077 6.24612 10.5231L6.86476 11.3172C6.9223 11.3911 6.95022 11.4837 6.943 11.5771L6.86548 12.5807C6.84446 12.8529 7.11153 13.056 7.36826 12.963L8.31461 12.62C8.37441 12.5983 8.43819 12.5927 8.50008 12.6023C8.56201 12.5928 8.62576 12.5983 8.68556 12.62L9.63191 12.963C9.8886 13.056 10.1557 12.8529 10.1347 12.5807L10.0572 11.5771C10.05 11.4837 10.0779 11.3911 10.1354 11.3172L10.754 10.5231C10.9218 10.3077 10.8112 9.99097 10.5458 9.92685Z" fill="url(#paint13_linear_662_1855)"/>
<path d="M8.68547 12.62L9.63183 12.963C9.88852 13.056 10.1556 12.8529 10.1346 12.5807L10.0571 11.5771C10.0499 11.4837 10.0778 11.3911 10.1353 11.3172L10.754 10.5231C10.9218 10.3078 10.8112 9.99097 10.5457 9.92685L9.56733 9.69046C9.47631 9.66846 9.39678 9.61328 9.3443 9.53573L8.78028 8.702C8.71205 8.60117 8.60755 8.54705 8.5 8.53833V12.6023C8.56193 12.5927 8.62571 12.5983 8.68547 12.62Z" fill="url(#paint14_linear_662_1855)"/>
<path d="M10.5459 9.92689L9.56744 9.6905C9.53403 9.68243 9.50222 9.66979 9.4727 9.65332L6.97852 12.8795C7.07637 12.974 7.22397 13.0153 7.36829 12.963L8.31464 12.6201C8.37444 12.5984 8.43822 12.5928 8.50012 12.6024C8.56205 12.5928 8.62579 12.5984 8.68559 12.6201L9.63194 12.963C9.88863 13.056 10.1557 12.853 10.1347 12.5808L10.0572 11.5772C10.05 11.4838 10.0779 11.3911 10.1354 11.3173L10.7541 10.5232C10.9219 10.3078 10.8113 9.99101 10.5459 9.92689Z" fill="url(#paint15_linear_662_1855)"/>
<path d="M6.45434 9.92689L7.43276 9.6905C7.46617 9.68243 7.49798 9.66979 7.5275 9.65332L10.0217 12.8795C9.92383 12.974 9.77622 13.0153 9.63191 12.963L8.68556 12.6201C8.62576 12.5984 8.56198 12.5928 8.50008 12.6024C8.43815 12.5928 8.3744 12.5984 8.31461 12.6201L7.36826 12.963C7.11157 13.056 6.84446 12.853 6.86548 12.5808L6.943 11.5772C6.95022 11.4838 6.9223 11.3911 6.86476 11.3173L6.24612 10.5232C6.07834 10.3078 6.18893 9.99101 6.45434 9.92689Z" fill="url(#paint16_linear_662_1855)"/>
<path d="M6.19401 10.1536C6.14749 10.2709 6.15866 10.4107 6.24622 10.5231L6.86485 11.3172C6.92239 11.3911 6.95031 11.4837 6.94309 11.5771L6.86557 12.5807C6.84455 12.8529 7.11163 13.056 7.36835 12.9629L8.3147 12.62C8.3745 12.5983 8.43828 12.5927 8.50018 12.6023C8.56211 12.5927 8.62585 12.5983 8.68565 12.62L9.632 12.9629C9.88869 13.056 10.1558 12.8529 10.1348 12.5807L10.0573 11.5771C10.0532 11.5253 10.0604 11.4738 10.0771 11.4255L6.19401 10.1536Z" fill="url(#paint17_linear_662_1855)"/>
<path d="M10.8067 10.1536C10.8532 10.2709 10.8421 10.4107 10.7545 10.5231L10.1358 11.3172C10.0783 11.3911 10.0504 11.4837 10.0576 11.5771L10.1351 12.5807C10.1561 12.8529 9.88903 13.056 9.63234 12.9629L8.68599 12.62C8.62619 12.5983 8.56241 12.5927 8.50052 12.6023C8.43859 12.5927 8.37484 12.5983 8.31504 12.62L7.36869 12.9629C7.112 13.056 6.84489 12.8529 6.86591 12.5807L6.94343 11.5771C6.94745 11.5253 6.94026 11.4738 6.92357 11.4255L10.8067 10.1536Z" fill="url(#paint18_linear_662_1855)"/>
<path d="M8.5003 6.02185C8.47959 6.02185 8.45905 6.02238 8.4384 6.02264L7.66846 6.79258L13.2892 12.4133C13.4193 11.9684 13.4894 11.4978 13.4894 11.0109C13.4894 8.25551 11.2557 6.02185 8.5003 6.02185Z" fill="url(#paint19_linear_662_1855)"/>
<path d="M5.48877 0.104614V2.73991L8.50053 5.75167L11.5123 2.73991V0.104614H5.48877Z" fill="url(#paint20_linear_662_1855)"/>
<path d="M5.48877 0.104614V0.924756L8.49046 3.92645C8.49602 3.932 8.50505 3.932 8.51061 3.92645L11.5123 0.924756V0.104614H5.48877Z" fill="url(#paint21_linear_662_1855)"/>
<path d="M8.50053 4.40094C8.37636 4.40094 8.25222 4.35369 8.15773 4.25917L5.48877 1.59021V2.73989L8.50053 5.75165L11.5123 2.73989V1.59021L8.84334 4.25917C8.74885 4.35366 8.62471 4.40094 8.50053 4.40094Z" fill="url(#paint22_linear_662_1855)"/>
<path d="M5.48877 0.104614V0.924756L8.49046 3.92645C8.49602 3.932 8.50505 3.932 8.51061 3.92645L11.5123 0.924756V0.104614H5.48877Z" fill="url(#paint23_linear_662_1855)"/>
<path d="M8.50053 4.40094C8.37636 4.40094 8.25222 4.35369 8.15773 4.25917L5.48877 1.59021V2.73989L8.50053 5.75165L11.5123 2.73989V1.59021L8.84334 4.25917C8.74885 4.35366 8.62471 4.40094 8.50053 4.40094Z" fill="url(#paint24_linear_662_1855)"/>
<path d="M8.50053 4.40094C8.62471 4.40094 8.74885 4.35369 8.84334 4.25917L11.5123 1.59021V2.73989L8.50053 5.75165L5.48877 2.73989V1.59021L8.15773 4.25917C8.25222 4.35366 8.37639 4.40094 8.50053 4.40094Z" fill="url(#paint25_linear_662_1855)"/>
<path d="M8.17018 5.06756L5.60723 2.50461C5.41504 2.31243 5.10342 2.31243 4.91123 2.50461C4.71904 2.6968 4.71904 3.00843 4.91123 3.20061L8.50044 6.78989L12.0897 3.20065C12.2819 3.00846 12.2819 2.69683 12.0897 2.50465C11.8975 2.31246 11.5859 2.31246 11.3937 2.50465L8.83073 5.0676C8.6483 5.25 8.35258 5.24999 8.17018 5.06756Z" fill="url(#paint26_linear_662_1855)"/>
<path d="M4.9113 2.51045L8.12262 5.72178C8.33134 5.9305 8.66976 5.9305 8.87848 5.72178L12.0898 2.51045C12.0907 2.50951 12.0915 2.50847 12.0924 2.50753C12.0915 2.50659 12.0907 2.50556 12.0898 2.50461C11.8976 2.31243 11.586 2.31243 11.3938 2.50461L8.83083 5.06756C8.64843 5.24996 8.35268 5.24996 8.17028 5.06756L5.60733 2.50461C5.41514 2.31243 5.10351 2.31243 4.91133 2.50461C4.91039 2.50556 4.90963 2.50659 4.90869 2.50753C4.9096 2.50847 4.91035 2.50951 4.9113 2.51045Z" fill="url(#paint27_linear_662_1855)"/>
<path d="M8.50044 6.78984L11.0341 4.25623H9.64203L8.8307 5.06755C8.6483 5.24995 8.35255 5.24995 8.17015 5.06755L7.35883 4.25623H5.9668L8.50044 6.78984Z" fill="url(#paint28_linear_662_1855)"/>
<path d="M8.18652 6.47618L8.50025 6.7899L11.7136 3.57654H10.3216L8.83054 5.06758C8.65344 5.24468 8.36986 5.24929 8.18652 5.08255V6.47618Z" fill="url(#paint29_linear_662_1855)"/>
<path d="M8.50014 7.13724C9.14985 7.13724 9.67655 6.61054 9.67655 5.96083C9.67655 5.31112 9.14985 4.78442 8.50014 4.78442C7.85043 4.78442 7.32373 5.31112 7.32373 5.96083C7.32373 6.61054 7.85043 7.13724 8.50014 7.13724Z" fill="url(#paint30_linear_662_1855)"/>
<path d="M8.50013 6.63527C8.87262 6.63527 9.17458 6.33331 9.17458 5.96082C9.17458 5.58834 8.87262 5.28638 8.50013 5.28638C8.12764 5.28638 7.82568 5.58834 7.82568 5.96082C7.82568 6.33331 8.12764 6.63527 8.50013 6.63527Z" fill="url(#paint31_linear_662_1855)"/>
<path d="M11.967 1.17123H5.03357C4.83436 1.17123 4.67285 1.00973 4.67285 0.81051V0.360722C4.67285 0.161506 4.83436 0 5.03357 0H11.9671C12.1662 0 12.3278 0.161506 12.3278 0.360722V0.810541C12.3278 1.00976 12.1662 1.17123 11.967 1.17123Z" fill="url(#paint32_linear_662_1855)"/>
</g>
<defs>
<linearGradient id="paint0_linear_662_1855" x1="2.9337" y1="8.99001" x2="3.95933" y2="10.6054" gradientUnits="userSpaceOnUse">
<stop stop-color="#FBC56D"/>
<stop offset="1" stop-color="#C5715A"/>
</linearGradient>
<linearGradient id="paint1_linear_662_1855" x1="3.07799" y1="10.4125" x2="4.17238" y2="10.8119" gradientUnits="userSpaceOnUse">
<stop stop-color="#8C3D27" stop-opacity="0"/>
<stop offset="1" stop-color="#8C3D27"/>
</linearGradient>
<linearGradient id="paint2_linear_662_1855" x1="4.68793" y1="7.26752" x2="4.54415" y2="9.80794" gradientUnits="userSpaceOnUse">
<stop stop-color="#FBC56D"/>
<stop offset="1" stop-color="#C5715A"/>
</linearGradient>
<linearGradient id="paint3_linear_662_1855" x1="4.36143" y1="8.55576" x2="4.98189" y2="9.71912" gradientUnits="userSpaceOnUse">
<stop stop-color="#8C3D27" stop-opacity="0"/>
<stop offset="1" stop-color="#8C3D27"/>
</linearGradient>
<linearGradient id="paint4_linear_662_1855" x1="14.064" y1="8.99443" x2="13.0383" y2="10.6098" gradientUnits="userSpaceOnUse">
<stop stop-color="#FBC56D"/>
<stop offset="1" stop-color="#C5715A"/>
</linearGradient>
<linearGradient id="paint5_linear_662_1855" x1="13.9197" y1="10.4169" x2="12.8253" y2="10.8163" gradientUnits="userSpaceOnUse">
<stop stop-color="#8C3D27" stop-opacity="0"/>
<stop offset="1" stop-color="#8C3D27"/>
</linearGradient>
<linearGradient id="paint6_linear_662_1855" x1="12.3095" y1="7.27195" x2="12.4533" y2="9.81234" gradientUnits="userSpaceOnUse">
<stop stop-color="#FBC56D"/>
<stop offset="1" stop-color="#C5715A"/>
</linearGradient>
<linearGradient id="paint7_linear_662_1855" x1="12.6361" y1="8.56016" x2="12.0156" y2="9.72352" gradientUnits="userSpaceOnUse">
<stop stop-color="#8C3D27" stop-opacity="0"/>
<stop offset="1" stop-color="#8C3D27"/>
</linearGradient>
<linearGradient id="paint8_linear_662_1855" x1="5.42433" y1="7.93495" x2="10.686" y2="13.1966" gradientUnits="userSpaceOnUse">
<stop stop-color="#FBC56D"/>
<stop offset="1" stop-color="#C5715A"/>
</linearGradient>
<linearGradient id="paint9_linear_662_1855" x1="11.0828" y1="13.5937" x2="5.84193" y2="8.3528" gradientUnits="userSpaceOnUse">
<stop stop-color="#FBC56D"/>
<stop offset="1" stop-color="#C5715A"/>
</linearGradient>
<linearGradient id="paint10_linear_662_1855" x1="6.01854" y1="8.52903" x2="10.1038" y2="12.6143" gradientUnits="userSpaceOnUse">
<stop stop-color="#FBC56D"/>
<stop offset="1" stop-color="#C5715A"/>
</linearGradient>
<linearGradient id="paint11_linear_662_1855" x1="8.50028" y1="12.4706" x2="8.50028" y2="15.7453" gradientUnits="userSpaceOnUse">
<stop stop-color="#8C3D27" stop-opacity="0"/>
<stop offset="1" stop-color="#8C3D27"/>
</linearGradient>
<linearGradient id="paint12_linear_662_1855" x1="11.4882" y1="13.6038" x2="7.36789" y2="11.0103" gradientUnits="userSpaceOnUse">
<stop stop-color="#8C3D27" stop-opacity="0"/>
<stop offset="1" stop-color="#8C3D27"/>
</linearGradient>
<linearGradient id="paint13_linear_662_1855" x1="7.46084" y1="10.0626" x2="9.33491" y2="11.9367" gradientUnits="userSpaceOnUse">
<stop stop-color="#FBC56D"/>
<stop offset="1" stop-color="#C5715A"/>
</linearGradient>
<linearGradient id="paint14_linear_662_1855" x1="9.62292" y1="10.5736" x2="7.03271" y2="11.6444" gradientUnits="userSpaceOnUse">
<stop stop-color="#8C3D27" stop-opacity="0"/>
<stop offset="1" stop-color="#8C3D27"/>
</linearGradient>
<linearGradient id="paint15_linear_662_1855" x1="8.94674" y1="11.4928" x2="7.52863" y2="10.8851" gradientUnits="userSpaceOnUse">
<stop stop-color="#8C3D27" stop-opacity="0"/>
<stop offset="1" stop-color="#8C3D27"/>
</linearGradient>
<linearGradient id="paint16_linear_662_1855" x1="8.05346" y1="11.4928" x2="9.47157" y2="10.8851" gradientUnits="userSpaceOnUse">
<stop stop-color="#8C3D27" stop-opacity="0"/>
<stop offset="1" stop-color="#8C3D27"/>
</linearGradient>
<linearGradient id="paint17_linear_662_1855" x1="8.08509" y1="11.5639" x2="8.99671" y2="10.0988" gradientUnits="userSpaceOnUse">
<stop stop-color="#8C3D27" stop-opacity="0"/>
<stop offset="1" stop-color="#8C3D27"/>
</linearGradient>
<linearGradient id="paint18_linear_662_1855" x1="8.84533" y1="11.3789" x2="8.76938" y2="9.94632" gradientUnits="userSpaceOnUse">
<stop stop-color="#8C3D27" stop-opacity="0"/>
<stop offset="1" stop-color="#8C3D27"/>
</linearGradient>
<linearGradient id="paint19_linear_662_1855" x1="10.9588" y1="8.90323" x2="9.03461" y2="5.53592" gradientUnits="userSpaceOnUse">
<stop stop-color="#8C3D27" stop-opacity="0"/>
<stop offset="1" stop-color="#8C3D27"/>
</linearGradient>
<linearGradient id="paint20_linear_662_1855" x1="8.72366" y1="1.77812" x2="9.96287" y2="3.75459" gradientUnits="userSpaceOnUse">
<stop stop-color="#F9F5F3"/>
<stop offset="1" stop-color="#D8E8F0"/>
</linearGradient>
<linearGradient id="paint21_linear_662_1855" x1="7.48761" y1="-0.646852" x2="11.336" y2="3.7662" gradientUnits="userSpaceOnUse">
<stop stop-color="#BBEC6C"/>
<stop offset="1" stop-color="#81B823"/>
</linearGradient>
<linearGradient id="paint22_linear_662_1855" x1="6.6701" y1="0.0660059" x2="10.5184" y2="4.47906" gradientUnits="userSpaceOnUse">
<stop stop-color="#BBEC6C"/>
<stop offset="1" stop-color="#81B823"/>
</linearGradient>
<linearGradient id="paint23_linear_662_1855" x1="8.50053" y1="2.08632" x2="8.50053" y2="1.04996" gradientUnits="userSpaceOnUse">
<stop stop-color="#78A91F" stop-opacity="0"/>
<stop offset="1" stop-color="#78A91F"/>
</linearGradient>
<linearGradient id="paint24_linear_662_1855" x1="9.69254" y1="3.35702" x2="10.2281" y2="3.89255" gradientUnits="userSpaceOnUse">
<stop stop-color="#78A91F" stop-opacity="0"/>
<stop offset="1" stop-color="#78A91F"/>
</linearGradient>
<linearGradient id="paint25_linear_662_1855" x1="7.30853" y1="3.35702" x2="6.77301" y2="3.89255" gradientUnits="userSpaceOnUse">
<stop stop-color="#78A91F" stop-opacity="0"/>
<stop offset="1" stop-color="#78A91F"/>
</linearGradient>
<linearGradient id="paint26_linear_662_1855" x1="11.22" y1="5.57219" x2="4.78675" y2="-0.861064" gradientUnits="userSpaceOnUse">
<stop stop-color="#FBC56D"/>
<stop offset="1" stop-color="#C5715A"/>
</linearGradient>
<linearGradient id="paint27_linear_662_1855" x1="8.50054" y1="2.56215" x2="8.50054" y2="6.95553" gradientUnits="userSpaceOnUse">
<stop stop-color="#FBC56D"/>
<stop offset="1" stop-color="#C5715A"/>
</linearGradient>
<linearGradient id="paint28_linear_662_1855" x1="8.50044" y1="5.11373" x2="8.50044" y2="6.55825" gradientUnits="userSpaceOnUse">
<stop stop-color="#8C3D27" stop-opacity="0"/>
<stop offset="1" stop-color="#8C3D27"/>
</linearGradient>
<linearGradient id="paint29_linear_662_1855" x1="9.98314" y1="4.29588" x2="9.1047" y2="5.19" gradientUnits="userSpaceOnUse">
<stop stop-color="#8C3D27" stop-opacity="0"/>
<stop offset="1" stop-color="#8C3D27"/>
</linearGradient>
<linearGradient id="paint30_linear_662_1855" x1="7.82563" y1="5.28632" x2="9.48931" y2="6.95001" gradientUnits="userSpaceOnUse">
<stop stop-color="#FBC56D"/>
<stop offset="1" stop-color="#C5715A"/>
</linearGradient>
<linearGradient id="paint31_linear_662_1855" x1="8.97856" y1="6.43926" x2="8.155" y2="5.61569" gradientUnits="userSpaceOnUse">
<stop stop-color="#FBC56D"/>
<stop offset="1" stop-color="#C5715A"/>
</linearGradient>
<linearGradient id="paint32_linear_662_1855" x1="8.5003" y1="0.355545" x2="8.5003" y2="1.00929" gradientUnits="userSpaceOnUse">
<stop stop-color="#FBC56D"/>
<stop offset="1" stop-color="#C5715A"/>
</linearGradient>
<clipPath id="clip0_662_1855">
<rect width="16" height="16" fill="white" transform="translate(0.5)"/>
</clipPath>
</defs>
</svg>
