<svg width="17" height="16" viewBox="0 0 17 16" fill="none" xmlns="http://www.w3.org/2000/svg">
<g clip-path="url(#clip0_264_542)">
<path d="M16.1291 0.5L9.26367 5.57996L10.5404 2.58617L16.1291 0.5Z" fill="#E17726"/>
<path d="M0.886719 0.505981L6.46053 2.58655L7.6728 5.61959L0.886719 0.505981Z" fill="#E27625"/>
<path d="M13.3664 11.3036L16.4008 11.3613L15.3404 14.964L11.6377 13.9445L13.3664 11.3036Z" fill="#E27625"/>
<path d="M3.63364 11.3036L5.35597 13.9445L1.65951 14.964L0.605469 11.3613L3.63364 11.3036Z" fill="#E27625"/>
<path d="M7.50804 4.84692L7.63208 8.85214L3.92139 8.68331L4.97686 7.09097L4.99022 7.07561L7.50804 4.84692Z" fill="#E27625"/>
<path d="M9.45352 4.80237L12.0098 7.0759L12.023 7.09114L13.0785 8.68348L9.36865 8.85226L9.45352 4.80237Z" fill="#E27625"/>
<path d="M5.46468 11.3153L7.49083 12.894L5.13721 14.0303L5.46468 11.3153Z" fill="#E27625"/>
<path d="M11.5356 11.3149L11.8563 14.0302L9.50928 12.8938L11.5356 11.3149Z" fill="#E27625"/>
<path d="M9.56104 12.7451L11.9427 13.8984L9.72728 14.9513L9.75028 14.2554L9.56104 12.7451Z" fill="#D5BFB2"/>
<path d="M7.43833 12.7456L7.25651 14.244L7.27143 14.9504L5.05078 13.8983L7.43833 12.7456Z" fill="#D5BFB2"/>
<path d="M6.7505 9.37488L7.37288 10.6829L5.25391 10.0622L6.7505 9.37488Z" fill="#233447"/>
<path d="M10.2497 9.375L11.7533 10.0621L9.62744 10.6827L10.2497 9.375Z" fill="#233447"/>
<path d="M5.62657 11.3019L5.28405 14.1169L3.44824 11.3634L5.62657 11.3019Z" fill="#CC6228"/>
<path d="M11.3735 11.3019L13.5519 11.3634L11.7092 14.1169L11.3735 11.3019Z" fill="#CC6228"/>
<path d="M13.1319 8.52417L11.5466 10.1399L10.3243 9.5813L9.73911 10.8115L9.35547 8.69599L13.1319 8.52417Z" fill="#CC6228"/>
<path d="M3.86719 8.52417L7.64432 8.69602L7.26069 10.8116L6.67536 9.58148L5.45951 10.1399L3.86719 8.52417Z" fill="#CC6228"/>
<path d="M3.76025 8.19263L5.5539 10.0127L5.61606 11.8095L3.76025 8.19263Z" fill="#E27525"/>
<path d="M13.2414 8.18933L11.3823 11.8127L11.4523 10.0126L13.2414 8.18933Z" fill="#E27525"/>
<path d="M7.55688 8.30347L7.62906 8.75784L7.80744 9.88977L7.69277 13.3664L7.15057 10.5736L7.15039 10.5447L7.55688 8.30347Z" fill="#E27525"/>
<path d="M9.4422 8.29724L9.84976 10.5447L9.84958 10.5736L9.30603 13.3734L9.28452 12.6731L9.19971 9.86922L9.4422 8.29724Z" fill="#E27525"/>
<path d="M11.6117 9.94043L11.551 11.5015L9.65887 12.9758L9.27637 12.7055L9.70513 10.497L11.6117 9.94043Z" fill="#F5841F"/>
<path d="M5.39502 9.94043L7.295 10.4971L7.72375 12.7055L7.34125 12.9757L5.44902 11.5014L5.39502 9.94043Z" fill="#F5841F"/>
<path d="M4.68848 13.5536L7.10923 14.7006L7.09898 14.2108L7.30152 14.033H9.69739L9.90727 14.2102L9.89181 14.6996L12.2972 13.5565L11.1267 14.5237L9.71138 15.4958H7.28213L5.86769 14.5197L4.68848 13.5536Z" fill="#C0AC9D"/>
<path d="M9.38756 12.5924L9.72983 12.8342L9.9304 14.4345L9.64014 14.1894H7.36042L7.07568 14.4394L7.26967 12.8343L7.61206 12.5924H9.38756Z" fill="#161616"/>
<path d="M15.6761 0.640625L16.5002 3.11297L15.9855 5.61274L16.352 5.89548L15.8561 6.27384L16.2288 6.56167L15.7353 7.01115L16.0383 7.23057L15.2342 8.16969L11.936 7.20941L11.9075 7.19409L9.53076 5.18918L15.6761 0.640625Z" fill="#763E1A"/>
<path d="M1.32413 0.640625L7.46947 5.18918L5.09278 7.19409L5.06419 7.20941L1.76605 8.16969L0.961951 7.23057L1.2647 7.01131L0.771407 6.56168L1.14341 6.27415L0.640084 5.89471L1.02039 5.6118L0.5 3.11306L1.32413 0.640625Z" fill="#763E1A"/>
<path d="M11.7743 6.99939L15.2689 8.01682L16.4043 11.5159L13.409 11.5159L11.3452 11.5419L12.8461 8.61645L11.7743 6.99939Z" fill="#F5841F"/>
<path d="M5.22565 6.99939L4.15369 8.61645L5.65478 11.5419L3.59198 11.5159H0.602051L1.73101 8.01684L5.22565 6.99939Z" fill="#F5841F"/>
<path d="M10.7116 2.56946L9.73417 5.20938L9.52675 8.77568L9.44738 9.89347L9.44108 12.7489H7.55912L7.55302 9.89883L7.47339 8.7747L7.26587 5.20938L6.28857 2.56946H10.7116Z" fill="#F5841F"/>
</g>
<defs>
<clipPath id="clip0_264_542">
<rect width="16" height="15" fill="white" transform="translate(0.5 0.5)"/>
</clipPath>
</defs>
</svg>
