<svg width="17" height="16" viewBox="0 0 17 16" fill="none" xmlns="http://www.w3.org/2000/svg">
<g clip-path="url(#clip0_662_1802)">
<path d="M3.95459 11.8541C4.90057 11.9763 5.72585 12.3604 6.3102 12.8897C6.43258 13.0005 6.387 13.3534 6.24049 13.4295C5.54088 13.793 4.64507 13.9549 3.69909 13.8327C2.75312 13.7105 1.92783 13.3264 1.34348 12.7971C1.2211 12.6863 1.26668 12.3334 1.41319 12.2573C2.1128 11.8939 3.00861 11.7319 3.95459 11.8541Z" fill="url(#paint0_linear_662_1802)"/>
<path d="M3.95459 11.8541C4.90057 11.9763 5.72585 12.3604 6.3102 12.8897C6.43258 13.0005 6.387 13.3534 6.24049 13.4295C5.54088 13.793 4.64507 13.9549 3.69909 13.8327C2.75312 13.7105 1.92783 13.3264 1.34348 12.7971C1.2211 12.6863 1.26668 12.3334 1.41319 12.2573C2.1128 11.8939 3.00861 11.7319 3.95459 11.8541Z" fill="url(#paint1_linear_662_1802)"/>
<path d="M4.06544 10.5295C5.07711 10.9681 5.8708 11.6591 6.35042 12.4341C6.45085 12.5964 6.28724 12.9737 6.10013 13.0114C5.20664 13.1911 4.15971 13.0841 3.14807 12.6455C2.1364 12.2069 1.34271 11.5159 0.863083 10.7409C0.762659 10.5786 0.926267 10.2012 1.11337 10.1636C2.00686 9.9839 3.05376 10.0909 4.06544 10.5295Z" fill="url(#paint2_linear_662_1802)"/>
<path d="M4.06544 10.5295C5.07711 10.9681 5.8708 11.6591 6.35042 12.4341C6.45085 12.5964 6.28724 12.9737 6.10013 13.0114C5.20664 13.1911 4.15971 13.0841 3.14807 12.6455C2.1364 12.2069 1.34271 11.5159 0.863083 10.7409C0.762659 10.5786 0.926267 10.2012 1.11337 10.1636C2.00686 9.9839 3.05376 10.0909 4.06544 10.5295Z" fill="url(#paint3_linear_662_1802)"/>
<path d="M5.88703 8.40289C6.29224 9.42836 6.36487 10.4782 6.15599 11.3654C6.11225 11.5512 5.7297 11.7023 5.57079 11.5966C4.81192 11.0919 4.1473 10.2759 3.74209 9.25045C3.33688 8.22497 3.26425 7.17509 3.47313 6.28797C3.51687 6.10218 3.89942 5.95103 4.05832 6.05672C4.81719 6.56144 5.48182 7.37738 5.88703 8.40289Z" fill="url(#paint4_linear_662_1802)"/>
<path d="M5.88703 8.40289C6.29224 9.42836 6.36487 10.4782 6.15599 11.3654C6.11225 11.5512 5.7297 11.7023 5.57079 11.5966C4.81192 11.0919 4.1473 10.2759 3.74209 9.25045C3.33688 8.22497 3.26425 7.17509 3.47313 6.28797C3.51687 6.10218 3.89942 5.95103 4.05832 6.05672C4.81719 6.56144 5.48182 7.37738 5.88703 8.40289Z" fill="url(#paint5_linear_662_1802)"/>
<path d="M4.4103 8.44143C5.44183 9.3688 6.11254 10.5102 6.375 11.6263C6.42997 11.86 6.08402 12.2449 5.84578 12.215C4.70815 12.0723 3.50206 11.5265 2.47053 10.599C1.439 9.67167 0.76829 8.53025 0.505827 7.41417C0.450863 7.18044 0.796808 6.79563 1.03505 6.82549C2.17265 6.96814 3.37877 7.51406 4.4103 8.44143Z" fill="url(#paint6_linear_662_1802)"/>
<path d="M0.978516 8.68227C1.32942 9.36547 1.8305 10.0235 2.47069 10.599C3.50222 11.5264 4.7083 12.0723 5.84593 12.215C6.08418 12.2448 6.43012 11.8601 6.37516 11.6263C6.1127 10.5102 5.44198 9.36879 4.41045 8.44142C3.80305 7.89532 3.13506 7.48167 2.45623 7.20459L0.978516 8.68227Z" fill="url(#paint7_linear_662_1802)"/>
<path d="M13.0453 11.8542C12.0993 11.9764 11.274 12.3605 10.6897 12.8898C10.5673 13.0006 10.6129 13.3535 10.7594 13.4296C11.459 13.7931 12.3548 13.955 13.3008 13.8328C14.2468 13.7107 15.072 13.3265 15.6564 12.7973C15.7788 12.6864 15.7332 12.3335 15.5867 12.2574C14.8871 11.894 13.9913 11.7321 13.0453 11.8542Z" fill="url(#paint8_linear_662_1802)"/>
<path d="M13.0453 11.8542C12.0993 11.9764 11.274 12.3605 10.6897 12.8898C10.5673 13.0006 10.6129 13.3535 10.7594 13.4296C11.459 13.7931 12.3548 13.955 13.3008 13.8328C14.2468 13.7107 15.072 13.3265 15.6564 12.7973C15.7788 12.6864 15.7332 12.3335 15.5867 12.2574C14.8871 11.894 13.9913 11.7321 13.0453 11.8542Z" fill="url(#paint9_linear_662_1802)"/>
<path d="M12.9347 10.5296C11.923 10.9682 11.1293 11.6592 10.6497 12.4342C10.5493 12.5965 10.7129 12.9739 10.9 13.0115C11.7935 13.1912 12.8404 13.0842 13.8521 12.6456C14.8637 12.207 15.6574 11.516 16.137 10.741C16.2375 10.5787 16.0739 10.2013 15.8868 10.1637C14.9933 9.98402 13.9464 10.091 12.9347 10.5296Z" fill="url(#paint10_linear_662_1802)"/>
<path d="M12.9347 10.5296C11.923 10.9682 11.1293 11.6592 10.6497 12.4342C10.5493 12.5965 10.7129 12.9739 10.9 13.0115C11.7935 13.1912 12.8404 13.0842 13.8521 12.6456C14.8637 12.207 15.6574 11.516 16.137 10.741C16.2375 10.5787 16.0739 10.2013 15.8868 10.1637C14.9933 9.98402 13.9464 10.091 12.9347 10.5296Z" fill="url(#paint11_linear_662_1802)"/>
<path d="M11.1132 8.40301C10.708 9.42849 10.6353 10.4784 10.8442 11.3655C10.888 11.5513 11.2705 11.7024 11.4294 11.5967C12.1883 11.092 12.8529 10.276 13.2581 9.25057C13.6633 8.2251 13.736 7.17521 13.5271 6.28809C13.4833 6.1023 13.1008 5.95115 12.9419 6.05685C12.183 6.56157 11.5184 7.3775 11.1132 8.40301Z" fill="url(#paint12_linear_662_1802)"/>
<path d="M11.1132 8.40301C10.708 9.42849 10.6353 10.4784 10.8442 11.3655C10.888 11.5513 11.2705 11.7024 11.4294 11.5967C12.1883 11.092 12.8529 10.276 13.2581 9.25057C13.6633 8.2251 13.736 7.17521 13.5271 6.28809C13.4833 6.1023 13.1008 5.95115 12.9419 6.05685C12.183 6.56157 11.5184 7.3775 11.1132 8.40301Z" fill="url(#paint13_linear_662_1802)"/>
<path d="M12.5897 8.44155C11.5581 9.36893 10.8874 10.5104 10.625 11.6264C10.57 11.8602 10.9159 12.245 11.1542 12.2151C12.2918 12.0725 13.4979 11.5266 14.5294 10.5992C15.561 9.6718 16.2317 8.53037 16.4941 7.41429C16.5491 7.18056 16.2032 6.79575 15.9649 6.82562C14.8273 6.96827 13.6212 7.51418 12.5897 8.44155Z" fill="url(#paint14_linear_662_1802)"/>
<path d="M16.0216 8.68239C15.6707 9.36559 15.1696 10.0236 14.5294 10.5992C13.4979 11.5265 12.2918 12.0724 11.1542 12.2151C10.9159 12.245 10.57 11.8602 10.625 11.6264C10.8874 10.5103 11.5581 9.36892 12.5897 8.44154C13.1971 7.89544 13.8651 7.48179 14.5439 7.20471L16.0216 8.68239Z" fill="url(#paint15_linear_662_1802)"/>
<path d="M8.49979 16C11.2552 16 13.4888 13.7663 13.4888 11.0109C13.4888 8.25552 11.2552 6.02185 8.49979 6.02185C5.74442 6.02185 3.51074 8.25552 3.51074 11.0109C3.51074 13.7663 5.74442 16 8.49979 16Z" fill="url(#paint16_linear_662_1802)"/>
<path d="M8.49958 14.9876C10.6958 14.9876 12.4762 13.2072 12.4762 11.0109C12.4762 8.8147 10.6958 7.0343 8.49958 7.0343C6.30335 7.0343 4.52295 8.8147 4.52295 11.0109C4.52295 13.2072 6.30335 14.9876 8.49958 14.9876Z" fill="url(#paint17_linear_662_1802)"/>
<path d="M8.4999 14.4248C10.3854 14.4248 11.9139 12.8964 11.9139 11.0109C11.9139 9.12541 10.3854 7.59692 8.4999 7.59692C6.61442 7.59692 5.08594 9.12541 5.08594 11.0109C5.08594 12.8964 6.61442 14.4248 8.4999 14.4248Z" fill="url(#paint18_linear_662_1802)"/>
<path d="M3.51074 11.0109C3.51074 13.7663 5.7444 16 8.49979 16C11.2552 16 13.4888 13.7663 13.4888 11.0109C13.4888 10.9916 13.4883 10.9723 13.4881 10.953H3.51146C3.51124 10.9723 3.51074 10.9916 3.51074 11.0109Z" fill="url(#paint19_linear_662_1802)"/>
<path d="M9.89941 15.8008C11.4715 15.3423 12.7224 14.1312 13.2361 12.5835L10.8062 10.1536L10.2584 10.1805L8.77991 8.70203L6.97803 12.8794L9.89941 15.8008Z" fill="url(#paint20_linear_662_1802)"/>
<path d="M10.5458 9.92685L9.56741 9.69046C9.4764 9.66846 9.39687 9.61328 9.34438 9.53573L8.78037 8.702C8.71213 8.60117 8.60763 8.54705 8.50008 8.53833C8.39254 8.54705 8.28801 8.60117 8.2198 8.702L7.65579 9.53573C7.60333 9.61328 7.5238 9.66846 7.43276 9.69046L6.45434 9.92685C6.18893 9.99097 6.07834 10.3077 6.24612 10.5231L6.86476 11.3172C6.9223 11.3911 6.95022 11.4837 6.943 11.5771L6.86548 12.5807C6.84446 12.8529 7.11153 13.056 7.36826 12.963L8.31461 12.62C8.37441 12.5983 8.43819 12.5927 8.50008 12.6023C8.56201 12.5928 8.62576 12.5983 8.68556 12.62L9.63191 12.963C9.8886 13.056 10.1557 12.8529 10.1347 12.5807L10.0572 11.5771C10.05 11.4837 10.0779 11.3911 10.1354 11.3172L10.754 10.5231C10.9218 10.3077 10.8112 9.99097 10.5458 9.92685Z" fill="url(#paint21_linear_662_1802)"/>
<path d="M8.68547 12.62L9.63183 12.963C9.88852 13.056 10.1556 12.8529 10.1346 12.5807L10.0571 11.5771C10.0499 11.4837 10.0778 11.3911 10.1353 11.3172L10.754 10.5231C10.9218 10.3078 10.8112 9.99097 10.5457 9.92685L9.56733 9.69046C9.47631 9.66846 9.39678 9.61328 9.3443 9.53573L8.78028 8.702C8.71205 8.60117 8.60755 8.54705 8.5 8.53833V12.6023C8.56193 12.5927 8.62571 12.5983 8.68547 12.62Z" fill="url(#paint22_linear_662_1802)"/>
<path d="M10.5459 9.92689L9.56744 9.6905C9.53403 9.68243 9.50222 9.66979 9.4727 9.65332L6.97852 12.8795C7.07637 12.974 7.22397 13.0153 7.36829 12.963L8.31464 12.6201C8.37444 12.5984 8.43822 12.5928 8.50012 12.6024C8.56205 12.5928 8.62579 12.5984 8.68559 12.6201L9.63194 12.963C9.88863 13.056 10.1557 12.853 10.1347 12.5808L10.0572 11.5772C10.05 11.4838 10.0779 11.3911 10.1354 11.3173L10.7541 10.5232C10.9219 10.3078 10.8113 9.99101 10.5459 9.92689Z" fill="url(#paint23_linear_662_1802)"/>
<path d="M6.45434 9.92689L7.43276 9.6905C7.46617 9.68243 7.49798 9.66979 7.5275 9.65332L10.0217 12.8795C9.92383 12.974 9.77622 13.0153 9.63191 12.963L8.68556 12.6201C8.62576 12.5984 8.56198 12.5928 8.50008 12.6024C8.43815 12.5928 8.3744 12.5984 8.31461 12.6201L7.36826 12.963C7.11157 13.056 6.84446 12.853 6.86548 12.5808L6.943 11.5772C6.95022 11.4838 6.9223 11.3911 6.86476 11.3173L6.24612 10.5232C6.07834 10.3078 6.18893 9.99101 6.45434 9.92689Z" fill="url(#paint24_linear_662_1802)"/>
<path d="M6.19401 10.1536C6.14749 10.2709 6.15866 10.4107 6.24622 10.5231L6.86485 11.3172C6.92239 11.3911 6.95031 11.4837 6.94309 11.5771L6.86557 12.5807C6.84455 12.8529 7.11163 13.056 7.36835 12.9629L8.3147 12.62C8.3745 12.5983 8.43828 12.5927 8.50018 12.6023C8.56211 12.5927 8.62585 12.5983 8.68565 12.62L9.632 12.9629C9.88869 13.056 10.1558 12.8529 10.1348 12.5807L10.0573 11.5771C10.0532 11.5253 10.0604 11.4738 10.0771 11.4255L6.19401 10.1536Z" fill="url(#paint25_linear_662_1802)"/>
<path d="M10.8067 10.1536C10.8532 10.2709 10.8421 10.4107 10.7545 10.5231L10.1358 11.3172C10.0783 11.3911 10.0504 11.4837 10.0576 11.5771L10.1351 12.5807C10.1561 12.8529 9.88903 13.056 9.63234 12.9629L8.68599 12.62C8.62619 12.5983 8.56241 12.5927 8.50052 12.6023C8.43859 12.5927 8.37484 12.5983 8.31504 12.62L7.36869 12.9629C7.112 13.056 6.84489 12.8529 6.86591 12.5807L6.94343 11.5771C6.94745 11.5253 6.94026 11.4738 6.92357 11.4255L10.8067 10.1536Z" fill="url(#paint26_linear_662_1802)"/>
<path d="M8.49981 6.02185C8.47911 6.02185 8.45856 6.02238 8.43791 6.02264L7.66797 6.79258L13.2887 12.4133C13.4188 11.9684 13.4889 11.4978 13.4889 11.0109C13.4889 8.25551 11.2552 6.02185 8.49981 6.02185Z" fill="url(#paint27_linear_662_1802)"/>
<path d="M5.48828 0.104614V2.73991L8.50005 5.75167L11.5118 2.73991V0.104614H5.48828Z" fill="url(#paint28_linear_662_1802)"/>
<path d="M5.48828 0.104614V0.924756L8.48998 3.92645C8.49553 3.932 8.50456 3.932 8.51012 3.92645L11.5118 0.924756V0.104614H5.48828Z" fill="url(#paint29_linear_662_1802)"/>
<path d="M5.48828 0.104614V0.924756L8.48998 3.92645C8.49553 3.932 8.50456 3.932 8.51012 3.92645L11.5118 0.924756V0.104614H5.48828Z" fill="url(#paint30_linear_662_1802)"/>
<path d="M8.50005 4.40094C8.37587 4.40094 8.25173 4.35369 8.15724 4.25917L5.48828 1.59021V2.73989L8.50005 5.75165L11.5118 2.73989V1.59021L8.84285 4.25917C8.74836 4.35366 8.62422 4.40094 8.50005 4.40094Z" fill="url(#paint31_linear_662_1802)"/>
<path d="M8.50005 4.40094C8.37587 4.40094 8.25173 4.35369 8.15724 4.25917L5.48828 1.59021V2.73989L8.50005 5.75165L11.5118 2.73989V1.59021L8.84285 4.25917C8.74836 4.35366 8.62422 4.40094 8.50005 4.40094Z" fill="url(#paint32_linear_662_1802)"/>
<path d="M8.50005 4.40094C8.62422 4.40094 8.74836 4.35369 8.84285 4.25917L11.5118 1.59021V2.73989L8.50005 5.75165L5.48828 2.73989V1.59021L8.15724 4.25917C8.25173 4.35366 8.37591 4.40094 8.50005 4.40094Z" fill="url(#paint33_linear_662_1802)"/>
<path d="M8.16969 5.06756L5.60674 2.50461C5.41455 2.31243 5.10293 2.31243 4.91074 2.50461C4.71855 2.6968 4.71855 3.00843 4.91074 3.20061L8.49995 6.78989L12.0892 3.20065C12.2814 3.00846 12.2814 2.69683 12.0892 2.50465C11.897 2.31246 11.5854 2.31246 11.3932 2.50465L8.83024 5.0676C8.64781 5.25 8.35209 5.24999 8.16969 5.06756Z" fill="url(#paint34_linear_662_1802)"/>
<path d="M4.91081 2.51045L8.12213 5.72178C8.33085 5.9305 8.66927 5.9305 8.87799 5.72178L12.0893 2.51045C12.0902 2.50951 12.091 2.50847 12.0919 2.50753C12.091 2.50659 12.0902 2.50556 12.0893 2.50461C11.8971 2.31243 11.5855 2.31243 11.3933 2.50461L8.83034 5.06756C8.64794 5.24996 8.35219 5.24996 8.16979 5.06756L5.60684 2.50461C5.41465 2.31243 5.10303 2.31243 4.91084 2.50461C4.9099 2.50556 4.90914 2.50659 4.9082 2.50753C4.90911 2.50847 4.90987 2.50951 4.91081 2.51045Z" fill="url(#paint35_linear_662_1802)"/>
<path d="M8.49996 6.78984L11.0336 4.25623H9.64154L8.83022 5.06755C8.64782 5.24995 8.35207 5.24995 8.16967 5.06755L7.35834 4.25623H5.96631L8.49996 6.78984Z" fill="url(#paint36_linear_662_1802)"/>
<path d="M8.18604 6.47618L8.49976 6.7899L11.7131 3.57654H10.3211L8.83005 5.06758C8.65295 5.24468 8.36938 5.24929 8.18604 5.08255V6.47618Z" fill="url(#paint37_linear_662_1802)"/>
<path d="M8.49965 7.13724C9.14936 7.13724 9.67606 6.61054 9.67606 5.96083C9.67606 5.31112 9.14936 4.78442 8.49965 4.78442C7.84994 4.78442 7.32324 5.31112 7.32324 5.96083C7.32324 6.61054 7.84994 7.13724 8.49965 7.13724Z" fill="url(#paint38_linear_662_1802)"/>
<path d="M8.49964 6.63527C8.87213 6.63527 9.17409 6.33331 9.17409 5.96082C9.17409 5.58834 8.87213 5.28638 8.49964 5.28638C8.12716 5.28638 7.8252 5.58834 7.8252 5.96082C7.8252 6.33331 8.12716 6.63527 8.49964 6.63527Z" fill="url(#paint39_linear_662_1802)"/>
<path d="M11.9665 1.17123H5.03308C4.83387 1.17123 4.67236 1.00973 4.67236 0.81051V0.360722C4.67236 0.161506 4.83387 0 5.03308 0H11.9666C12.1658 0 12.3273 0.161506 12.3273 0.360722V0.810541C12.3273 1.00976 12.1658 1.17123 11.9665 1.17123Z" fill="url(#paint40_linear_662_1802)"/>
</g>
<defs>
<linearGradient id="paint0_linear_662_1802" x1="2.78132" y1="11.4019" x2="3.81661" y2="12.8293" gradientUnits="userSpaceOnUse">
<stop stop-color="#FEF0AE"/>
<stop offset="1" stop-color="#FBC56D"/>
</linearGradient>
<linearGradient id="paint1_linear_662_1802" x1="2.68705" y1="12.3174" x2="4.31842" y2="13.0703" gradientUnits="userSpaceOnUse">
<stop stop-color="#DC8758" stop-opacity="0"/>
<stop offset="0.9957" stop-color="#DC8758" stop-opacity="0.996"/>
<stop offset="1" stop-color="#DC8758"/>
</linearGradient>
<linearGradient id="paint2_linear_662_1802" x1="1.71965" y1="10.1852" x2="3.42945" y2="11.4557" gradientUnits="userSpaceOnUse">
<stop stop-color="#FEF0AE"/>
<stop offset="1" stop-color="#FBC56D"/>
</linearGradient>
<linearGradient id="paint3_linear_662_1802" x1="2.43645" y1="11.6064" x2="3.73317" y2="11.5855" gradientUnits="userSpaceOnUse">
<stop stop-color="#DC8758" stop-opacity="0"/>
<stop offset="0.9957" stop-color="#DC8758" stop-opacity="0.996"/>
<stop offset="1" stop-color="#DC8758"/>
</linearGradient>
<linearGradient id="paint4_linear_662_1802" x1="5.15464" y1="7.26228" x2="4.76248" y2="9.0662" gradientUnits="userSpaceOnUse">
<stop stop-color="#FEF0AE"/>
<stop offset="1" stop-color="#FBC56D"/>
</linearGradient>
<linearGradient id="paint5_linear_662_1802" x1="3.46008" y1="7.44395" x2="4.464" y2="8.46877" gradientUnits="userSpaceOnUse">
<stop stop-color="#DC8758" stop-opacity="0"/>
<stop offset="0.9957" stop-color="#DC8758" stop-opacity="0.996"/>
<stop offset="1" stop-color="#DC8758"/>
</linearGradient>
<linearGradient id="paint6_linear_662_1802" x1="2.85695" y1="7.69555" x2="3.71969" y2="10.3936" gradientUnits="userSpaceOnUse">
<stop stop-color="#FEF0AE"/>
<stop offset="1" stop-color="#FBC56D"/>
</linearGradient>
<linearGradient id="paint7_linear_662_1802" x1="3.03091" y1="9.16468" x2="4.13939" y2="10.1268" gradientUnits="userSpaceOnUse">
<stop stop-color="#DC8758" stop-opacity="0"/>
<stop offset="0.9957" stop-color="#DC8758" stop-opacity="0.996"/>
<stop offset="1" stop-color="#DC8758"/>
</linearGradient>
<linearGradient id="paint8_linear_662_1802" x1="14.2185" y1="11.402" x2="13.1832" y2="12.8294" gradientUnits="userSpaceOnUse">
<stop stop-color="#FEF0AE"/>
<stop offset="1" stop-color="#FBC56D"/>
</linearGradient>
<linearGradient id="paint9_linear_662_1802" x1="14.3128" y1="12.3175" x2="12.6815" y2="13.0704" gradientUnits="userSpaceOnUse">
<stop stop-color="#DC8758" stop-opacity="0"/>
<stop offset="0.9957" stop-color="#DC8758" stop-opacity="0.996"/>
<stop offset="1" stop-color="#DC8758"/>
</linearGradient>
<linearGradient id="paint10_linear_662_1802" x1="15.2805" y1="10.1853" x2="13.5707" y2="11.4559" gradientUnits="userSpaceOnUse">
<stop stop-color="#FEF0AE"/>
<stop offset="1" stop-color="#FBC56D"/>
</linearGradient>
<linearGradient id="paint11_linear_662_1802" x1="14.5637" y1="11.6065" x2="13.267" y2="11.5856" gradientUnits="userSpaceOnUse">
<stop stop-color="#DC8758" stop-opacity="0"/>
<stop offset="0.9957" stop-color="#DC8758" stop-opacity="0.996"/>
<stop offset="1" stop-color="#DC8758"/>
</linearGradient>
<linearGradient id="paint12_linear_662_1802" x1="11.8456" y1="7.2624" x2="12.2377" y2="9.06632" gradientUnits="userSpaceOnUse">
<stop stop-color="#FEF0AE"/>
<stop offset="1" stop-color="#FBC56D"/>
</linearGradient>
<linearGradient id="paint13_linear_662_1802" x1="13.5401" y1="7.44408" x2="12.5362" y2="8.46889" gradientUnits="userSpaceOnUse">
<stop stop-color="#DC8758" stop-opacity="0"/>
<stop offset="0.9957" stop-color="#DC8758" stop-opacity="0.996"/>
<stop offset="1" stop-color="#DC8758"/>
</linearGradient>
<linearGradient id="paint14_linear_662_1802" x1="14.143" y1="7.69567" x2="13.2803" y2="10.3937" gradientUnits="userSpaceOnUse">
<stop stop-color="#FEF0AE"/>
<stop offset="1" stop-color="#FBC56D"/>
</linearGradient>
<linearGradient id="paint15_linear_662_1802" x1="13.9692" y1="9.16481" x2="12.8607" y2="10.1269" gradientUnits="userSpaceOnUse">
<stop stop-color="#DC8758" stop-opacity="0"/>
<stop offset="0.9957" stop-color="#DC8758" stop-opacity="0.996"/>
<stop offset="1" stop-color="#DC8758"/>
</linearGradient>
<linearGradient id="paint16_linear_662_1802" x1="5.42384" y1="7.93495" x2="10.6855" y2="13.1966" gradientUnits="userSpaceOnUse">
<stop stop-color="#FEF0AE"/>
<stop offset="1" stop-color="#FBC56D"/>
</linearGradient>
<linearGradient id="paint17_linear_662_1802" x1="11.0824" y1="13.5937" x2="5.84144" y2="8.3528" gradientUnits="userSpaceOnUse">
<stop stop-color="#FEF0AE"/>
<stop offset="1" stop-color="#FBC56D"/>
</linearGradient>
<linearGradient id="paint18_linear_662_1802" x1="6.01805" y1="8.52903" x2="10.1033" y2="12.6143" gradientUnits="userSpaceOnUse">
<stop stop-color="#FEF0AE"/>
<stop offset="1" stop-color="#FBC56D"/>
</linearGradient>
<linearGradient id="paint19_linear_662_1802" x1="8.49979" y1="12.4706" x2="8.49979" y2="15.7453" gradientUnits="userSpaceOnUse">
<stop stop-color="#DC8758" stop-opacity="0"/>
<stop offset="0.9957" stop-color="#DC8758" stop-opacity="0.996"/>
<stop offset="1" stop-color="#DC8758"/>
</linearGradient>
<linearGradient id="paint20_linear_662_1802" x1="11.4882" y1="13.6038" x2="7.36789" y2="11.0103" gradientUnits="userSpaceOnUse">
<stop stop-color="#DC8758" stop-opacity="0"/>
<stop offset="0.9957" stop-color="#DC8758" stop-opacity="0.996"/>
<stop offset="1" stop-color="#DC8758"/>
</linearGradient>
<linearGradient id="paint21_linear_662_1802" x1="7.46084" y1="10.0626" x2="9.33491" y2="11.9367" gradientUnits="userSpaceOnUse">
<stop stop-color="#FBC56D"/>
<stop offset="1" stop-color="#C5715A"/>
</linearGradient>
<linearGradient id="paint22_linear_662_1802" x1="9.62292" y1="10.5736" x2="7.03271" y2="11.6444" gradientUnits="userSpaceOnUse">
<stop stop-color="#8C3D27" stop-opacity="0"/>
<stop offset="1" stop-color="#8C3D27"/>
</linearGradient>
<linearGradient id="paint23_linear_662_1802" x1="8.94674" y1="11.4928" x2="7.52863" y2="10.8851" gradientUnits="userSpaceOnUse">
<stop stop-color="#8C3D27" stop-opacity="0"/>
<stop offset="1" stop-color="#8C3D27"/>
</linearGradient>
<linearGradient id="paint24_linear_662_1802" x1="8.05346" y1="11.4928" x2="9.47157" y2="10.8851" gradientUnits="userSpaceOnUse">
<stop stop-color="#8C3D27" stop-opacity="0"/>
<stop offset="1" stop-color="#8C3D27"/>
</linearGradient>
<linearGradient id="paint25_linear_662_1802" x1="8.08509" y1="11.5639" x2="8.99671" y2="10.0988" gradientUnits="userSpaceOnUse">
<stop stop-color="#8C3D27" stop-opacity="0"/>
<stop offset="1" stop-color="#8C3D27"/>
</linearGradient>
<linearGradient id="paint26_linear_662_1802" x1="8.84533" y1="11.3789" x2="8.76938" y2="9.94632" gradientUnits="userSpaceOnUse">
<stop stop-color="#8C3D27" stop-opacity="0"/>
<stop offset="1" stop-color="#8C3D27"/>
</linearGradient>
<linearGradient id="paint27_linear_662_1802" x1="10.9583" y1="8.90323" x2="9.03412" y2="5.53592" gradientUnits="userSpaceOnUse">
<stop stop-color="#DC8758" stop-opacity="0"/>
<stop offset="0.9957" stop-color="#DC8758" stop-opacity="0.996"/>
<stop offset="1" stop-color="#DC8758"/>
</linearGradient>
<linearGradient id="paint28_linear_662_1802" x1="8.72317" y1="1.77812" x2="9.96238" y2="3.75459" gradientUnits="userSpaceOnUse">
<stop stop-color="#F9F5F3"/>
<stop offset="1" stop-color="#D8E8F0"/>
</linearGradient>
<linearGradient id="paint29_linear_662_1802" x1="7.48712" y1="-0.646852" x2="11.3355" y2="3.7662" gradientUnits="userSpaceOnUse">
<stop stop-color="#FD4755"/>
<stop offset="1" stop-color="#A72B2B"/>
</linearGradient>
<linearGradient id="paint30_linear_662_1802" x1="8.50005" y1="2.08632" x2="8.50005" y2="1.04996" gradientUnits="userSpaceOnUse">
<stop stop-color="#A72B2B" stop-opacity="0"/>
<stop offset="1" stop-color="#42210B"/>
</linearGradient>
<linearGradient id="paint31_linear_662_1802" x1="6.66961" y1="0.0660061" x2="10.518" y2="4.47906" gradientUnits="userSpaceOnUse">
<stop stop-color="#FD4755"/>
<stop offset="1" stop-color="#A72B2B"/>
</linearGradient>
<linearGradient id="paint32_linear_662_1802" x1="9.69205" y1="3.35702" x2="10.2276" y2="3.89255" gradientUnits="userSpaceOnUse">
<stop stop-color="#A72B2B" stop-opacity="0"/>
<stop offset="1" stop-color="#42210B"/>
</linearGradient>
<linearGradient id="paint33_linear_662_1802" x1="7.30805" y1="3.35702" x2="6.77252" y2="3.89255" gradientUnits="userSpaceOnUse">
<stop stop-color="#A72B2B" stop-opacity="0"/>
<stop offset="1" stop-color="#42210B"/>
</linearGradient>
<linearGradient id="paint34_linear_662_1802" x1="11.2195" y1="5.57219" x2="4.78626" y2="-0.861063" gradientUnits="userSpaceOnUse">
<stop stop-color="#FEF0AE"/>
<stop offset="1" stop-color="#FBC56D"/>
</linearGradient>
<linearGradient id="paint35_linear_662_1802" x1="8.50005" y1="2.56215" x2="8.50005" y2="6.95553" gradientUnits="userSpaceOnUse">
<stop stop-color="#FEF0AE"/>
<stop offset="1" stop-color="#FBC56D"/>
</linearGradient>
<linearGradient id="paint36_linear_662_1802" x1="8.49996" y1="5.11373" x2="8.49996" y2="6.55825" gradientUnits="userSpaceOnUse">
<stop stop-color="#DC8758" stop-opacity="0"/>
<stop offset="0.9957" stop-color="#DC8758" stop-opacity="0.996"/>
<stop offset="1" stop-color="#DC8758"/>
</linearGradient>
<linearGradient id="paint37_linear_662_1802" x1="9.98265" y1="4.29588" x2="9.10422" y2="5.19" gradientUnits="userSpaceOnUse">
<stop stop-color="#DC8758" stop-opacity="0"/>
<stop offset="0.9957" stop-color="#DC8758" stop-opacity="0.996"/>
<stop offset="1" stop-color="#DC8758"/>
</linearGradient>
<linearGradient id="paint38_linear_662_1802" x1="7.82514" y1="5.28632" x2="9.48883" y2="6.95001" gradientUnits="userSpaceOnUse">
<stop stop-color="#FBC56D"/>
<stop offset="1" stop-color="#C5715A"/>
</linearGradient>
<linearGradient id="paint39_linear_662_1802" x1="9.15847" y1="6.61965" x2="7.59997" y2="5.06115" gradientUnits="userSpaceOnUse">
<stop stop-color="#FBC56D"/>
<stop offset="1" stop-color="#C5715A"/>
</linearGradient>
<linearGradient id="paint40_linear_662_1802" x1="8.49981" y1="0.355545" x2="8.49981" y2="1.00929" gradientUnits="userSpaceOnUse">
<stop stop-color="#FEF0AE"/>
<stop offset="1" stop-color="#FBC56D"/>
</linearGradient>
<clipPath id="clip0_662_1802">
<rect width="16" height="16" fill="white" transform="translate(0.5)"/>
</clipPath>
</defs>
</svg>
