<svg width="15" height="16" viewBox="0 0 15 16" fill="none" xmlns="http://www.w3.org/2000/svg">
<path d="M3.30611 11.8158C4.09852 12.1411 4.7255 12.6657 5.10975 13.2604C5.19022 13.3849 5.06887 13.6805 4.92412 13.7126C4.23289 13.8657 3.41814 13.7985 2.62573 13.4732C1.83332 13.1479 1.20634 12.6233 0.822093 12.0287C0.741623 11.9042 0.862972 11.6085 1.00772 11.5765C1.69892 11.4233 2.5137 11.4905 3.30611 11.8158Z" fill="url(#paint0_linear_860_1166)"/>
<path d="M3.30611 11.8158C4.09852 12.1411 4.7255 12.6657 5.10975 13.2604C5.19022 13.3849 5.06887 13.6805 4.92412 13.7126C4.23289 13.8657 3.41814 13.7985 2.62573 13.4732C1.83332 13.1479 1.20634 12.6233 0.822093 12.0287C0.741623 11.9042 0.862972 11.6085 1.00772 11.5765C1.69892 11.4233 2.5137 11.4905 3.30611 11.8158Z" fill="url(#paint1_linear_860_1166)"/>
<path d="M3.70924 10.6922C4.48527 11.3072 5.01371 12.0908 5.25016 12.8743C5.29967 13.0384 5.07024 13.3279 4.89916 13.3172C4.08232 13.2659 3.1988 12.9304 2.42277 12.3154C1.64674 11.7003 1.1183 10.9168 0.881847 10.1332C0.832341 9.9691 1.06177 9.67962 1.23284 9.69035C2.04969 9.74162 2.9332 10.0771 3.70924 10.6922Z" fill="url(#paint2_linear_860_1166)"/>
<path d="M3.70924 10.6922C4.48527 11.3072 5.01371 12.0908 5.25016 12.8743C5.29967 13.0384 5.07024 13.3279 4.89916 13.3172C4.08232 13.2659 3.1988 12.9304 2.42277 12.3154C1.64674 11.7003 1.1183 10.9168 0.881847 10.1332C0.832341 9.9691 1.06177 9.67962 1.23284 9.69035C2.04969 9.74162 2.9332 10.0771 3.70924 10.6922Z" fill="url(#paint3_linear_860_1166)"/>
<path d="M4.49225 8.96067C5.17222 10.0044 5.48952 11.1502 5.45853 12.1793C5.45203 12.3949 5.06267 12.6485 4.86292 12.5674C3.90901 12.1799 2.98913 11.4267 2.30916 10.3829C1.62919 9.33921 1.31189 8.19342 1.34289 7.16428C1.34938 6.94875 1.73875 6.6951 1.9385 6.77623C2.89241 7.16371 3.81228 7.91694 4.49225 8.96067Z" fill="url(#paint4_linear_860_1166)"/>
<path d="M1.45898 8.37405C1.60505 9.04815 1.88722 9.73518 2.30924 10.383C2.98921 11.4267 3.90906 12.1799 4.863 12.5674C5.06278 12.6486 5.45211 12.3949 5.45861 12.1794C5.48964 11.1502 5.17233 10.0044 4.49233 8.96069C4.09193 8.3461 3.60832 7.83234 3.08358 7.43457L1.45898 8.37405Z" fill="url(#paint5_linear_860_1166)"/>
<path d="M11.6936 11.8158C10.9012 12.1411 10.2742 12.6657 9.88996 13.2604C9.80949 13.3849 9.93084 13.6805 10.0756 13.7126C10.7668 13.8657 11.5816 13.7985 12.374 13.4732C13.1664 13.1479 13.7934 12.6233 14.1776 12.0287C14.2581 11.9042 14.1367 11.6085 13.992 11.5765C13.3008 11.4233 12.486 11.4905 11.6936 11.8158Z" fill="url(#paint6_linear_860_1166)"/>
<path d="M11.6936 11.8158C10.9012 12.1411 10.2742 12.6657 9.88996 13.2604C9.80949 13.3849 9.93084 13.6805 10.0756 13.7126C10.7668 13.8657 11.5816 13.7985 12.374 13.4732C13.1664 13.1479 13.7934 12.6233 14.1776 12.0287C14.2581 11.9042 14.1367 11.6085 13.992 11.5765C13.3008 11.4233 12.486 11.4905 11.6936 11.8158Z" fill="url(#paint7_linear_860_1166)"/>
<path d="M11.2909 10.6922C10.5149 11.3072 9.98647 12.0908 9.75001 12.8743C9.70051 13.0384 9.92993 13.3279 10.101 13.3172C10.9179 13.2659 11.8014 12.9304 12.5774 12.3154C13.3534 11.7003 13.8819 10.9168 14.1183 10.1332C14.1678 9.9691 13.9384 9.67962 13.7673 9.69035C12.9505 9.74162 12.067 10.0771 11.2909 10.6922Z" fill="url(#paint8_linear_860_1166)"/>
<path d="M11.2909 10.6922C10.5149 11.3072 9.98647 12.0908 9.75001 12.8743C9.70051 13.0384 9.92993 13.3279 10.101 13.3172C10.9179 13.2659 11.8014 12.9304 12.5774 12.3154C13.3534 11.7003 13.8819 10.9168 14.1183 10.1332C14.1678 9.9691 13.9384 9.67962 13.7673 9.69035C12.9505 9.74162 12.067 10.0771 11.2909 10.6922Z" fill="url(#paint9_linear_860_1166)"/>
<path d="M10.5074 8.96067C9.82744 10.0044 9.51013 11.1502 9.54113 12.1793C9.54762 12.3949 9.93699 12.6485 10.1367 12.5674C11.0907 12.1799 12.0105 11.4267 12.6905 10.3829C13.3705 9.33921 13.6878 8.19342 13.6568 7.16428C13.6503 6.94875 13.2609 6.6951 13.0612 6.77623C12.1072 7.16371 11.1874 7.91694 10.5074 8.96067Z" fill="url(#paint10_linear_860_1166)"/>
<path d="M13.5408 8.37405C13.3947 9.04815 13.1125 9.73518 12.6905 10.383C12.0105 11.4267 11.0907 12.1799 10.1367 12.5674C9.93696 12.6486 9.54763 12.3949 9.54113 12.1794C9.51011 11.1502 9.82741 10.0044 10.5074 8.96069C10.9078 8.3461 11.3914 7.83234 11.9162 7.43457L13.5408 8.37405Z" fill="url(#paint11_linear_860_1166)"/>
<path d="M7.49979 16C10.2552 16 12.4888 13.7663 12.4888 11.0109C12.4888 8.25552 10.2552 6.02185 7.49979 6.02185C4.74442 6.02185 2.51074 8.25552 2.51074 11.0109C2.51074 13.7663 4.74442 16 7.49979 16Z" fill="url(#paint12_linear_860_1166)"/>
<path d="M7.49958 14.9876C9.69581 14.9876 11.4762 13.2072 11.4762 11.0109C11.4762 8.8147 9.69581 7.0343 7.49958 7.0343C5.30335 7.0343 3.52295 8.8147 3.52295 11.0109C3.52295 13.2072 5.30335 14.9876 7.49958 14.9876Z" fill="url(#paint13_linear_860_1166)"/>
<path d="M7.4999 14.4248C9.38538 14.4248 10.9139 12.8964 10.9139 11.0109C10.9139 9.12541 9.38538 7.59692 7.4999 7.59692C5.61442 7.59692 4.08594 9.12541 4.08594 11.0109C4.08594 12.8964 5.61442 14.4248 7.4999 14.4248Z" fill="url(#paint14_linear_860_1166)"/>
<path d="M2.51074 11.0109C2.51074 13.7663 4.7444 16 7.49979 16C10.2552 16 12.4888 13.7663 12.4888 11.0109C12.4888 10.9916 12.4883 10.9723 12.4881 10.953H2.51146C2.51124 10.9723 2.51074 10.9916 2.51074 11.0109Z" fill="url(#paint15_linear_860_1166)"/>
<path d="M8.89892 15.8008C10.471 15.3423 11.7219 14.1312 12.2356 12.5835L9.80568 10.1536L9.25788 10.1805L7.77942 8.70203L5.97754 12.8794L8.89892 15.8008Z" fill="url(#paint16_linear_860_1166)"/>
<path d="M9.54534 9.92685L8.56692 9.69046C8.47591 9.66846 8.39638 9.61328 8.34389 9.53573L7.77988 8.702C7.71164 8.60117 7.60714 8.54705 7.4996 8.53833C7.39205 8.54705 7.28752 8.60117 7.21931 8.702L6.6553 9.53573C6.60284 9.61328 6.52331 9.66846 6.43227 9.69046L5.45385 9.92685C5.18844 9.99097 5.07785 10.3077 5.24563 10.5231L5.86427 11.3172C5.92181 11.3911 5.94973 11.4837 5.94251 11.5771L5.86499 12.5807C5.84397 12.8529 6.11105 13.056 6.36777 12.963L7.31412 12.62C7.37392 12.5983 7.4377 12.5927 7.4996 12.6023C7.56152 12.5928 7.62527 12.5983 7.68507 12.62L8.63142 12.963C8.88811 13.056 9.15522 12.8529 9.1342 12.5807L9.05668 11.5771C9.04946 11.4837 9.07738 11.3911 9.13492 11.3172L9.75356 10.5231C9.92134 10.3077 9.81075 9.99097 9.54534 9.92685Z" fill="url(#paint17_linear_860_1166)"/>
<path d="M7.68499 12.62L8.63134 12.963C8.88803 13.056 9.15514 12.8529 9.13412 12.5807L9.05659 11.5771C9.04938 11.4837 9.0773 11.3911 9.13484 11.3172L9.75347 10.5231C9.92128 10.3078 9.81067 9.99097 9.54525 9.92685L8.56684 9.69046C8.47583 9.66846 8.3963 9.61328 8.34381 9.53573L7.77979 8.702C7.71156 8.60117 7.60706 8.54705 7.49951 8.53833V12.6023C7.56144 12.5927 7.62522 12.5983 7.68499 12.62Z" fill="url(#paint18_linear_860_1166)"/>
<path d="M9.54537 9.92689L8.56695 9.6905C8.53354 9.68243 8.50173 9.66979 8.47221 9.65332L5.97803 12.8795C6.07588 12.974 6.22349 13.0153 6.3678 12.963L7.31415 12.6201C7.37395 12.5984 7.43773 12.5928 7.49963 12.6024C7.56156 12.5928 7.62531 12.5984 7.6851 12.6201L8.63145 12.963C8.88815 13.056 9.15525 12.853 9.13423 12.5808L9.05671 11.5772C9.04949 11.4838 9.07742 11.3911 9.13495 11.3173L9.75359 10.5232C9.92137 10.3078 9.81078 9.99101 9.54537 9.92689Z" fill="url(#paint19_linear_860_1166)"/>
<path d="M5.45385 9.92689L6.43227 9.6905C6.46568 9.68243 6.49749 9.66979 6.52701 9.65332L9.0212 12.8795C8.92334 12.974 8.77574 13.0153 8.63142 12.963L7.68507 12.6201C7.62527 12.5984 7.56149 12.5928 7.4996 12.6024C7.43767 12.5928 7.37392 12.5984 7.31412 12.6201L6.36777 12.963C6.11108 13.056 5.84397 12.853 5.86499 12.5808L5.94251 11.5772C5.94973 11.4838 5.92181 11.3911 5.86427 11.3173L5.24563 10.5232C5.07785 10.3078 5.18844 9.99101 5.45385 9.92689Z" fill="url(#paint20_linear_860_1166)"/>
<path d="M5.19352 10.1536C5.147 10.2709 5.15817 10.4107 5.24573 10.5231L5.86436 11.3172C5.9219 11.3911 5.94982 11.4837 5.94261 11.5771L5.86508 12.5807C5.84407 12.8529 6.11114 13.056 6.36786 12.9629L7.31421 12.62C7.37401 12.5983 7.43779 12.5927 7.49969 12.6023C7.56162 12.5927 7.62537 12.5983 7.68516 12.62L8.63152 12.9629C8.88821 13.056 9.15531 12.8529 9.13429 12.5807L9.05677 11.5771C9.05275 11.5253 9.05994 11.4738 9.07663 11.4255L5.19352 10.1536Z" fill="url(#paint21_linear_860_1166)"/>
<path d="M9.80619 10.1536C9.85272 10.2709 9.84158 10.4107 9.75399 10.5231L9.13535 11.3172C9.07782 11.3911 9.04989 11.4837 9.05711 11.5771L9.13463 12.5807C9.15565 12.8529 8.88854 13.056 8.63185 12.9629L7.6855 12.62C7.62571 12.5983 7.56192 12.5927 7.50003 12.6023C7.4381 12.5927 7.37435 12.5983 7.31455 12.62L6.3682 12.9629C6.11151 13.056 5.8444 12.8529 5.86542 12.5807L5.94294 11.5771C5.94696 11.5253 5.93978 11.4738 5.92309 11.4255L9.80619 10.1536Z" fill="url(#paint22_linear_860_1166)"/>
<path d="M7.49981 6.02185C7.47911 6.02185 7.45856 6.02238 7.43791 6.02264L6.66797 6.79258L12.2887 12.4133C12.4188 11.9684 12.4889 11.4978 12.4889 11.0109C12.4889 8.25551 10.2552 6.02185 7.49981 6.02185Z" fill="url(#paint23_linear_860_1166)"/>
<path d="M4.48828 0.104614V2.73991L7.50005 5.75167L10.5118 2.73991V0.104614H4.48828Z" fill="url(#paint24_linear_860_1166)"/>
<path d="M4.48828 0.104614V0.924756L7.48998 3.92645C7.49553 3.932 7.50456 3.932 7.51012 3.92645L10.5118 0.924756V0.104614H4.48828Z" fill="url(#paint25_linear_860_1166)"/>
<path d="M4.48828 0.104614V0.924756L7.48998 3.92645C7.49553 3.932 7.50456 3.932 7.51012 3.92645L10.5118 0.924756V0.104614H4.48828Z" fill="url(#paint26_linear_860_1166)"/>
<path d="M7.50005 4.40094C7.37587 4.40094 7.25173 4.35369 7.15724 4.25917L4.48828 1.59021V2.73989L7.50005 5.75165L10.5118 2.73989V1.59021L7.84285 4.25917C7.74836 4.35366 7.62422 4.40094 7.50005 4.40094Z" fill="url(#paint27_linear_860_1166)"/>
<path d="M7.50005 4.40094C7.37587 4.40094 7.25173 4.35369 7.15724 4.25917L4.48828 1.59021V2.73989L7.50005 5.75165L10.5118 2.73989V1.59021L7.84285 4.25917C7.74836 4.35366 7.62422 4.40094 7.50005 4.40094Z" fill="url(#paint28_linear_860_1166)"/>
<path d="M7.50005 4.40094C7.62422 4.40094 7.74836 4.35369 7.84285 4.25917L10.5118 1.59021V2.73989L7.50005 5.75165L4.48828 2.73989V1.59021L7.15724 4.25917C7.25173 4.35366 7.37591 4.40094 7.50005 4.40094Z" fill="url(#paint29_linear_860_1166)"/>
<path d="M7.16969 5.06756L4.60674 2.50461C4.41455 2.31243 4.10293 2.31243 3.91074 2.50461C3.71855 2.6968 3.71855 3.00843 3.91074 3.20061L7.49995 6.78989L11.0892 3.20065C11.2814 3.00846 11.2814 2.69683 11.0892 2.50465C10.897 2.31246 10.5854 2.31246 10.3932 2.50465L7.83024 5.0676C7.64781 5.25 7.35209 5.24999 7.16969 5.06756Z" fill="url(#paint30_linear_860_1166)"/>
<path d="M3.91081 2.51045L7.12213 5.72178C7.33085 5.9305 7.66927 5.9305 7.87799 5.72178L11.0893 2.51045C11.0902 2.50951 11.091 2.50847 11.0919 2.50753C11.091 2.50659 11.0902 2.50556 11.0893 2.50461C10.8971 2.31243 10.5855 2.31243 10.3933 2.50461L7.83034 5.06756C7.64794 5.24996 7.35219 5.24996 7.16979 5.06756L4.60684 2.50461C4.41465 2.31243 4.10303 2.31243 3.91084 2.50461C3.9099 2.50556 3.90914 2.50659 3.9082 2.50753C3.90911 2.50847 3.90987 2.50951 3.91081 2.51045Z" fill="url(#paint31_linear_860_1166)"/>
<path d="M7.49996 6.78984L10.0336 4.25623H8.64154L7.83021 5.06755C7.64781 5.24995 7.35207 5.24995 7.16967 5.06755L6.35834 4.25623H4.96631L7.49996 6.78984Z" fill="url(#paint32_linear_860_1166)"/>
<path d="M7.18604 6.47618L7.49976 6.7899L10.7131 3.57654H9.32109L7.83005 5.06758C7.65295 5.24468 7.36938 5.24929 7.18604 5.08255V6.47618Z" fill="url(#paint33_linear_860_1166)"/>
<path d="M7.49965 7.13724C8.14936 7.13724 8.67606 6.61054 8.67606 5.96083C8.67606 5.31112 8.14936 4.78442 7.49965 4.78442C6.84994 4.78442 6.32324 5.31112 6.32324 5.96083C6.32324 6.61054 6.84994 7.13724 7.49965 7.13724Z" fill="url(#paint34_linear_860_1166)"/>
<path d="M7.49964 6.63527C7.87213 6.63527 8.17409 6.33331 8.17409 5.96082C8.17409 5.58834 7.87213 5.28638 7.49964 5.28638C7.12716 5.28638 6.8252 5.58834 6.8252 5.96082C6.8252 6.33331 7.12716 6.63527 7.49964 6.63527Z" fill="url(#paint35_linear_860_1166)"/>
<path d="M10.9665 1.17123H4.03308C3.83387 1.17123 3.67236 1.00973 3.67236 0.81051V0.360722C3.67236 0.161506 3.83387 0 4.03308 0H10.9666C11.1658 0 11.3273 0.161506 11.3273 0.360722V0.810541C11.3273 1.00976 11.1658 1.17123 10.9665 1.17123Z" fill="url(#paint36_linear_860_1166)"/>
<defs>
<linearGradient id="paint0_linear_860_1166" x1="2.3943" y1="11.1498" x2="2.96169" y2="12.628" gradientUnits="userSpaceOnUse">
<stop stop-color="#E6E6E6"/>
<stop offset="1" stop-color="#999999"/>
</linearGradient>
<linearGradient id="paint1_linear_860_1166" x1="2.1004" y1="11.9222" x2="3.34117" y2="12.9533" gradientUnits="userSpaceOnUse">
<stop stop-color="#766E6E" stop-opacity="0"/>
<stop offset="0.2806" stop-color="#716B6B" stop-opacity="0.281"/>
<stop offset="0.5705" stop-color="#656060" stop-opacity="0.571"/>
<stop offset="0.8636" stop-color="#514F4F" stop-opacity="0.864"/>
<stop offset="1" stop-color="#444444"/>
</linearGradient>
<linearGradient id="paint2_linear_860_1166" x1="1.7551" y1="9.84824" x2="2.94397" y2="11.3466" gradientUnits="userSpaceOnUse">
<stop stop-color="#E6E6E6"/>
<stop offset="1" stop-color="#999999"/>
</linearGradient>
<linearGradient id="paint3_linear_860_1166" x1="2.04763" y1="11.2472" x2="3.1774" y2="11.5295" gradientUnits="userSpaceOnUse">
<stop stop-color="#766E6E" stop-opacity="0"/>
<stop offset="0.2806" stop-color="#716B6B" stop-opacity="0.281"/>
<stop offset="0.5705" stop-color="#656060" stop-opacity="0.571"/>
<stop offset="0.8636" stop-color="#514F4F" stop-opacity="0.864"/>
<stop offset="1" stop-color="#444444"/>
</linearGradient>
<linearGradient id="paint4_linear_860_1166" x1="3.31827" y1="7.95212" x2="3.44159" y2="10.4926" gradientUnits="userSpaceOnUse">
<stop stop-color="#E6E6E6"/>
<stop offset="1" stop-color="#999999"/>
</linearGradient>
<linearGradient id="paint5_linear_860_1166" x1="3.1288" y1="9.2669" x2="3.86752" y2="10.3584" gradientUnits="userSpaceOnUse">
<stop stop-color="#766E6E" stop-opacity="0"/>
<stop offset="0.2806" stop-color="#716B6B" stop-opacity="0.281"/>
<stop offset="0.5705" stop-color="#656060" stop-opacity="0.571"/>
<stop offset="0.8636" stop-color="#514F4F" stop-opacity="0.864"/>
<stop offset="1" stop-color="#444444"/>
</linearGradient>
<linearGradient id="paint6_linear_860_1166" x1="12.6068" y1="11.1487" x2="12.0394" y2="12.6269" gradientUnits="userSpaceOnUse">
<stop stop-color="#E6E6E6"/>
<stop offset="1" stop-color="#999999"/>
</linearGradient>
<linearGradient id="paint7_linear_860_1166" x1="12.9007" y1="11.921" x2="11.66" y2="12.9522" gradientUnits="userSpaceOnUse">
<stop stop-color="#766E6E" stop-opacity="0"/>
<stop offset="0.2806" stop-color="#716B6B" stop-opacity="0.281"/>
<stop offset="0.5705" stop-color="#656060" stop-opacity="0.571"/>
<stop offset="0.8636" stop-color="#514F4F" stop-opacity="0.864"/>
<stop offset="1" stop-color="#444444"/>
</linearGradient>
<linearGradient id="paint8_linear_860_1166" x1="13.2465" y1="9.84708" x2="12.0576" y2="11.3455" gradientUnits="userSpaceOnUse">
<stop stop-color="#E6E6E6"/>
<stop offset="1" stop-color="#999999"/>
</linearGradient>
<linearGradient id="paint9_linear_860_1166" x1="12.9539" y1="11.2461" x2="11.8242" y2="11.5284" gradientUnits="userSpaceOnUse">
<stop stop-color="#766E6E" stop-opacity="0"/>
<stop offset="0.2806" stop-color="#716B6B" stop-opacity="0.281"/>
<stop offset="0.5705" stop-color="#656060" stop-opacity="0.571"/>
<stop offset="0.8636" stop-color="#514F4F" stop-opacity="0.864"/>
<stop offset="1" stop-color="#444444"/>
</linearGradient>
<linearGradient id="paint10_linear_860_1166" x1="11.6828" y1="7.95098" x2="11.5595" y2="10.4915" gradientUnits="userSpaceOnUse">
<stop stop-color="#E6E6E6"/>
<stop offset="1" stop-color="#999999"/>
</linearGradient>
<linearGradient id="paint11_linear_860_1166" x1="11.8723" y1="9.26576" x2="11.1337" y2="10.3572" gradientUnits="userSpaceOnUse">
<stop stop-color="#766E6E" stop-opacity="0"/>
<stop offset="0.2806" stop-color="#716B6B" stop-opacity="0.281"/>
<stop offset="0.5705" stop-color="#656060" stop-opacity="0.571"/>
<stop offset="0.8636" stop-color="#514F4F" stop-opacity="0.864"/>
<stop offset="1" stop-color="#444444"/>
</linearGradient>
<linearGradient id="paint12_linear_860_1166" x1="4.42384" y1="7.93495" x2="9.68552" y2="13.1966" gradientUnits="userSpaceOnUse">
<stop stop-color="#E6E6E6"/>
<stop offset="1" stop-color="#999999"/>
</linearGradient>
<linearGradient id="paint13_linear_860_1166" x1="10.0824" y1="13.5937" x2="4.84144" y2="8.3528" gradientUnits="userSpaceOnUse">
<stop stop-color="#E6E6E6"/>
<stop offset="1" stop-color="#999999"/>
</linearGradient>
<linearGradient id="paint14_linear_860_1166" x1="5.01805" y1="8.52903" x2="9.10329" y2="12.6143" gradientUnits="userSpaceOnUse">
<stop stop-color="#E6E6E6"/>
<stop offset="1" stop-color="#999999"/>
</linearGradient>
<linearGradient id="paint15_linear_860_1166" x1="7.49979" y1="12.4706" x2="7.49979" y2="15.7453" gradientUnits="userSpaceOnUse">
<stop stop-color="#766E6E" stop-opacity="0"/>
<stop offset="0.2806" stop-color="#716B6B" stop-opacity="0.281"/>
<stop offset="0.5705" stop-color="#656060" stop-opacity="0.571"/>
<stop offset="0.8636" stop-color="#514F4F" stop-opacity="0.864"/>
<stop offset="1" stop-color="#444444"/>
</linearGradient>
<linearGradient id="paint16_linear_860_1166" x1="10.4877" y1="13.6038" x2="6.36741" y2="11.0103" gradientUnits="userSpaceOnUse">
<stop stop-color="#766E6E" stop-opacity="0"/>
<stop offset="0.2806" stop-color="#716B6B" stop-opacity="0.281"/>
<stop offset="0.5705" stop-color="#656060" stop-opacity="0.571"/>
<stop offset="0.8636" stop-color="#514F4F" stop-opacity="0.864"/>
<stop offset="1" stop-color="#444444"/>
</linearGradient>
<linearGradient id="paint17_linear_860_1166" x1="6.46035" y1="10.0626" x2="8.33442" y2="11.9367" gradientUnits="userSpaceOnUse">
<stop stop-color="#F9F5F3"/>
<stop offset="1" stop-color="#D8E8F0"/>
</linearGradient>
<linearGradient id="paint18_linear_860_1166" x1="8.62243" y1="10.5736" x2="6.03222" y2="11.6444" gradientUnits="userSpaceOnUse">
<stop stop-color="#678D98" stop-opacity="0"/>
<stop offset="0.9957" stop-color="#678D98" stop-opacity="0.996"/>
<stop offset="1" stop-color="#678D98"/>
</linearGradient>
<linearGradient id="paint19_linear_860_1166" x1="7.94625" y1="11.4928" x2="6.52815" y2="10.8851" gradientUnits="userSpaceOnUse">
<stop stop-color="#678D98" stop-opacity="0"/>
<stop offset="0.9957" stop-color="#678D98" stop-opacity="0.996"/>
<stop offset="1" stop-color="#678D98"/>
</linearGradient>
<linearGradient id="paint20_linear_860_1166" x1="7.05298" y1="11.4928" x2="8.47108" y2="10.8851" gradientUnits="userSpaceOnUse">
<stop stop-color="#678D98" stop-opacity="0"/>
<stop offset="0.9957" stop-color="#678D98" stop-opacity="0.996"/>
<stop offset="1" stop-color="#678D98"/>
</linearGradient>
<linearGradient id="paint21_linear_860_1166" x1="7.0846" y1="11.5639" x2="7.99622" y2="10.0988" gradientUnits="userSpaceOnUse">
<stop stop-color="#678D98" stop-opacity="0"/>
<stop offset="0.9957" stop-color="#678D98" stop-opacity="0.996"/>
<stop offset="1" stop-color="#678D98"/>
</linearGradient>
<linearGradient id="paint22_linear_860_1166" x1="7.84484" y1="11.3789" x2="7.76889" y2="9.94632" gradientUnits="userSpaceOnUse">
<stop stop-color="#678D98" stop-opacity="0"/>
<stop offset="0.9957" stop-color="#678D98" stop-opacity="0.996"/>
<stop offset="1" stop-color="#678D98"/>
</linearGradient>
<linearGradient id="paint23_linear_860_1166" x1="9.95829" y1="8.90323" x2="8.03412" y2="5.53592" gradientUnits="userSpaceOnUse">
<stop stop-color="#766E6E" stop-opacity="0"/>
<stop offset="0.2806" stop-color="#716B6B" stop-opacity="0.281"/>
<stop offset="0.5705" stop-color="#656060" stop-opacity="0.571"/>
<stop offset="0.8636" stop-color="#514F4F" stop-opacity="0.864"/>
<stop offset="1" stop-color="#444444"/>
</linearGradient>
<linearGradient id="paint24_linear_860_1166" x1="7.72317" y1="1.77812" x2="8.96238" y2="3.75459" gradientUnits="userSpaceOnUse">
<stop stop-color="#F9F5F3"/>
<stop offset="1" stop-color="#D8E8F0"/>
</linearGradient>
<linearGradient id="paint25_linear_860_1166" x1="6.48712" y1="-0.646852" x2="10.3355" y2="3.7662" gradientUnits="userSpaceOnUse">
<stop stop-color="#B3DAFE"/>
<stop offset="1" stop-color="#0182FC"/>
</linearGradient>
<linearGradient id="paint26_linear_860_1166" x1="7.50005" y1="2.08632" x2="7.50005" y2="1.04996" gradientUnits="userSpaceOnUse">
<stop stop-color="#0182FC" stop-opacity="0"/>
<stop offset="0.1261" stop-color="#017FF3" stop-opacity="0.126"/>
<stop offset="0.3306" stop-color="#0176DB" stop-opacity="0.331"/>
<stop offset="0.5881" stop-color="#0268B4" stop-opacity="0.588"/>
<stop offset="0.8857" stop-color="#02547E" stop-opacity="0.886"/>
<stop offset="1" stop-color="#024C67"/>
</linearGradient>
<linearGradient id="paint27_linear_860_1166" x1="5.66961" y1="0.0660059" x2="9.51796" y2="4.47906" gradientUnits="userSpaceOnUse">
<stop stop-color="#B3DAFE"/>
<stop offset="1" stop-color="#0182FC"/>
</linearGradient>
<linearGradient id="paint28_linear_860_1166" x1="8.69205" y1="3.35702" x2="9.22758" y2="3.89255" gradientUnits="userSpaceOnUse">
<stop stop-color="#0182FC" stop-opacity="0"/>
<stop offset="0.1261" stop-color="#017FF3" stop-opacity="0.126"/>
<stop offset="0.3306" stop-color="#0176DB" stop-opacity="0.331"/>
<stop offset="0.5881" stop-color="#0268B4" stop-opacity="0.588"/>
<stop offset="0.8857" stop-color="#02547E" stop-opacity="0.886"/>
<stop offset="1" stop-color="#024C67"/>
</linearGradient>
<linearGradient id="paint29_linear_860_1166" x1="6.30805" y1="3.35702" x2="5.77252" y2="3.89255" gradientUnits="userSpaceOnUse">
<stop stop-color="#0182FC" stop-opacity="0"/>
<stop offset="0.1261" stop-color="#017FF3" stop-opacity="0.126"/>
<stop offset="0.3306" stop-color="#0176DB" stop-opacity="0.331"/>
<stop offset="0.5881" stop-color="#0268B4" stop-opacity="0.588"/>
<stop offset="0.8857" stop-color="#02547E" stop-opacity="0.886"/>
<stop offset="1" stop-color="#024C67"/>
</linearGradient>
<linearGradient id="paint30_linear_860_1166" x1="10.2195" y1="5.57219" x2="3.78626" y2="-0.861064" gradientUnits="userSpaceOnUse">
<stop stop-color="#E6E6E6"/>
<stop offset="1" stop-color="#999999"/>
</linearGradient>
<linearGradient id="paint31_linear_860_1166" x1="7.50005" y1="2.56215" x2="7.50005" y2="6.95553" gradientUnits="userSpaceOnUse">
<stop stop-color="#E6E6E6"/>
<stop offset="1" stop-color="#999999"/>
</linearGradient>
<linearGradient id="paint32_linear_860_1166" x1="7.49996" y1="5.11373" x2="7.49996" y2="6.55825" gradientUnits="userSpaceOnUse">
<stop stop-color="#766E6E" stop-opacity="0"/>
<stop offset="0.2806" stop-color="#716B6B" stop-opacity="0.281"/>
<stop offset="0.5705" stop-color="#656060" stop-opacity="0.571"/>
<stop offset="0.8636" stop-color="#514F4F" stop-opacity="0.864"/>
<stop offset="1" stop-color="#444444"/>
</linearGradient>
<linearGradient id="paint33_linear_860_1166" x1="8.98265" y1="4.29588" x2="8.10422" y2="5.19" gradientUnits="userSpaceOnUse">
<stop stop-color="#766E6E" stop-opacity="0"/>
<stop offset="0.2806" stop-color="#716B6B" stop-opacity="0.281"/>
<stop offset="0.5705" stop-color="#656060" stop-opacity="0.571"/>
<stop offset="0.8636" stop-color="#514F4F" stop-opacity="0.864"/>
<stop offset="1" stop-color="#444444"/>
</linearGradient>
<linearGradient id="paint34_linear_860_1166" x1="6.82514" y1="5.28632" x2="8.48883" y2="6.95001" gradientUnits="userSpaceOnUse">
<stop stop-color="#F9F5F3"/>
<stop offset="1" stop-color="#D8E8F0"/>
</linearGradient>
<linearGradient id="paint35_linear_860_1166" x1="7.97807" y1="6.43926" x2="7.15451" y2="5.61569" gradientUnits="userSpaceOnUse">
<stop stop-color="#F9F5F3"/>
<stop offset="1" stop-color="#D8E8F0"/>
</linearGradient>
<linearGradient id="paint36_linear_860_1166" x1="7.49981" y1="0.355545" x2="7.49981" y2="1.00929" gradientUnits="userSpaceOnUse">
<stop stop-color="#E6E6E6"/>
<stop offset="1" stop-color="#999999"/>
</linearGradient>
</defs>
</svg>
