<svg width="21" height="28" viewBox="0 0 21 28" fill="none" xmlns="http://www.w3.org/2000/svg">
<g filter="url(#filter0_d_599_1289)">
<path fill-rule="evenodd" clip-rule="evenodd" d="M6.84778 10.5877H14.1521V24.7545C14.1521 25.0955 13.7918 25.3161 13.4881 25.1611L10.5 23.636L7.51184 25.1611C7.20809 25.3161 6.84778 25.0955 6.84778 24.7545V10.5877Z" fill="#12AAB5"/>
</g>
<mask id="mask0_599_1289" style="mask-type:luminance" maskUnits="userSpaceOnUse" x="6" y="10" width="9" height="16">
<path fill-rule="evenodd" clip-rule="evenodd" d="M6.84778 10.5877H14.1521V24.7545C14.1521 25.0955 13.7918 25.3161 13.4881 25.1611L10.5 23.636L7.51184 25.1611C7.20809 25.3161 6.84778 25.0955 6.84778 24.7545V10.5877Z" fill="white"/>
</mask>
<g mask="url(#mask0_599_1289)">
<path fill-rule="evenodd" clip-rule="evenodd" d="M8.67395 17.6053H12.3261V25.5H8.67395V17.6053Z" fill="white"/>
</g>
<path style="mix-blend-mode:multiply" opacity="0.2" fill-rule="evenodd" clip-rule="evenodd" d="M9.4548 2.10675C10.0827 1.66848 10.9173 1.66848 11.5452 2.10675L19.3624 7.56331C20.0282 8.02804 20.3072 8.87657 20.0471 9.64572L17.0915 18.385C16.8406 19.1268 16.1447 19.626 15.3616 19.626H5.63837C4.8553 19.626 4.1594 19.1268 3.90853 18.385L0.952918 9.64572C0.692791 8.87657 0.971764 8.02804 1.63756 7.56331L9.4548 2.10675Z" fill="#18AC6C"/>
<path fill-rule="evenodd" clip-rule="evenodd" d="M9.4548 1.22956C10.0827 0.791292 10.9173 0.791292 11.5452 1.22956L19.3624 6.68612C20.0282 7.15085 20.3072 7.99938 20.0471 8.76853L17.0915 17.5078C16.8406 18.2496 16.1447 18.7489 15.3616 18.7489H5.63837C4.8553 18.7489 4.1594 18.2496 3.90853 17.5078L0.952918 8.76853C0.692791 7.99938 0.971764 7.15085 1.63756 6.68612L9.4548 1.22956Z" fill="url(#paint0_linear_599_1289)"/>
<mask id="mask1_599_1289" style="mask-type:luminance" maskUnits="userSpaceOnUse" x="0" y="0" width="21" height="19">
<path fill-rule="evenodd" clip-rule="evenodd" d="M9.4548 1.22956C10.0827 0.791292 10.9173 0.791292 11.5452 1.22956L19.3624 6.68612C20.0282 7.15085 20.3072 7.99938 20.0471 8.76853L17.0915 17.5078C16.8406 18.2496 16.1447 18.7489 15.3616 18.7489H5.63837C4.8553 18.7489 4.1594 18.2496 3.90853 17.5078L0.952918 8.76853C0.692791 7.99938 0.971764 7.15085 1.63756 6.68612L9.4548 1.22956Z" fill="white"/>
</mask>
<g mask="url(#mask1_599_1289)">
<path d="M11.4391 1.42663C10.8791 1.03573 10.1208 1.03573 9.56078 1.42663L1.72138 6.89865C1.16136 7.28955 0.927026 7.98244 1.14093 8.61493L4.13532 17.4688C4.34923 18.1013 4.96272 18.5296 5.65494 18.5296H15.345C16.0372 18.5296 16.6507 18.1013 16.8646 17.4688L19.859 8.61493C20.0729 7.98244 19.8386 7.28955 19.2785 6.89865L11.4391 1.42663Z" stroke="#E67515" stroke-width="0.456522"/>
<path d="M16.8646 17.4689L19.859 8.61494" stroke="#F68A2C" stroke-width="0.456522" stroke-linecap="round"/>
<path d="M1.14099 8.61494L4.13538 17.4689" stroke="#F68A2C" stroke-width="0.456522" stroke-linecap="round"/>
<path d="M19.859 8.61493C20.0729 7.98244 19.8386 7.28955 19.2785 6.89865L11.4391 1.42663C10.8791 1.03573 10.1208 1.03573 9.56078 1.42663L1.72138 6.89865C1.16136 7.28955 0.927026 7.98244 1.14093 8.61493" stroke="#FAA953" stroke-width="0.456522" stroke-linecap="round"/>
<path opacity="0.3" d="M11.4392 1.42663C10.8792 1.03573 10.1209 1.03573 9.56083 1.42663L1.72144 6.89865" stroke="white" stroke-width="0.456522" stroke-linecap="round"/>
<path d="M9.5608 1.42661L7.60095 2.79462" stroke="white" stroke-width="0.456522" stroke-linecap="round"/>
</g>
<g filter="url(#filter1_d_599_1289)">
<path fill-rule="evenodd" clip-rule="evenodd" d="M9.97743 3.93495C10.2914 3.71581 10.7087 3.71581 11.0226 3.93495L16.885 8.02701C17.2179 8.25938 17.3574 8.68364 17.2274 9.06821L15.0033 15.6445C14.8778 16.0154 14.5299 16.265 14.1384 16.265H6.8617C6.47016 16.265 6.12221 16.0154 5.99678 15.6445L3.77268 9.06821C3.64262 8.68364 3.78211 8.25938 4.115 8.02701L9.97743 3.93495Z" fill="url(#paint1_linear_599_1289)"/>
<path d="M11.1533 3.74778C10.7608 3.47386 10.2392 3.47386 9.84678 3.74778L3.98436 7.83984C3.56823 8.13029 3.39388 8.66062 3.55646 9.14134L5.78055 15.7176C5.93734 16.1812 6.37228 16.4933 6.8617 16.4933H14.1384C14.6278 16.4933 15.0627 16.1812 15.2195 15.7176L17.4436 9.14134C17.6062 8.66062 17.4318 8.13029 17.0157 7.83984L11.1533 3.74778Z" stroke="#E86A00" stroke-opacity="0.06" stroke-width="0.456522"/>
</g>
<mask id="mask2_599_1289" style="mask-type:luminance" maskUnits="userSpaceOnUse" x="3" y="3" width="15" height="14">
<path fill-rule="evenodd" clip-rule="evenodd" d="M9.97743 3.93495C10.2914 3.71581 10.7087 3.71581 11.0226 3.93495L16.885 8.02701C17.2179 8.25938 17.3574 8.68364 17.2274 9.06821L15.0033 15.6445C14.8778 16.0154 14.5299 16.265 14.1384 16.265H6.8617C6.47016 16.265 6.12221 16.0154 5.99678 15.6445L3.77268 9.06821C3.64262 8.68364 3.78211 8.25938 4.115 8.02701L9.97743 3.93495Z" fill="white"/>
</mask>
<g mask="url(#mask2_599_1289)">
<path fill-rule="evenodd" clip-rule="evenodd" d="M10.5 10.5877L3.19568 12.3421V8.83333L10.5 10.5877ZM10.5 10.5877L12.3261 3.57017H8.67394L10.5 10.5877ZM10.5 10.5877L17.8044 8.83333V12.3421L10.5 10.5877ZM10.5 10.5877L14.3737 4.38502L16.9562 6.8661L10.5 10.5877ZM10.5 10.5877L14.3737 16.7904L16.9562 14.3093L10.5 10.5877ZM10.5 10.5877L8.67394 17.6053H12.3261L10.5 10.5877ZM10.5 10.5877L6.62631 16.7904L4.04383 14.3093L10.5 10.5877Z" fill="url(#paint2_linear_599_1289)"/>
<path d="M6.62631 4.38502L4.04383 6.8661L10.5 10.5877L6.62631 4.38502Z" fill="url(#paint3_linear_599_1289)"/>
<path d="M9.36339 4.63464C9.04645 4.85587 8.8017 5.0267 8.62915 5.14714" stroke="white" stroke-width="0.456522" stroke-linecap="round"/>
</g>
<path d="M10.6352 13.4308C10.1617 13.4308 9.74575 13.3532 9.38731 13.1981C9.02887 13.0429 8.74533 12.8236 8.53668 12.54C8.32804 12.2565 8.20901 11.9221 8.17958 11.5369L8.17557 11.4848H9.79658L9.8046 11.5329C9.82065 11.6399 9.86345 11.7376 9.933 11.8258C10.0025 11.9141 10.0962 11.9836 10.2139 12.0345C10.3316 12.0853 10.4707 12.1107 10.6312 12.1107C10.7917 12.1107 10.9294 12.084 11.0444 12.0305C11.1595 11.9743 11.2477 11.8994 11.3093 11.8058C11.3708 11.7095 11.4015 11.5998 11.4015 11.4767V11.4687C11.4015 11.2708 11.324 11.121 11.1688 11.0193C11.0137 10.915 10.789 10.8628 10.4947 10.8628H9.89689V9.74339H10.4947C10.6713 9.74339 10.8211 9.72065 10.9441 9.67518C11.0672 9.6297 11.1608 9.56417 11.225 9.47857C11.2919 9.3903 11.3253 9.28731 11.3253 9.16962V9.16159C11.3253 9.04122 11.2972 8.93556 11.241 8.84461C11.1849 8.75366 11.1033 8.68412 10.9963 8.63597C10.892 8.58514 10.7676 8.55973 10.6231 8.55973C10.4733 8.55973 10.3423 8.58648 10.2299 8.63998C10.1202 8.6908 10.0333 8.76436 9.96911 8.86066C9.90491 8.95428 9.86613 9.06396 9.85275 9.18968L9.84874 9.22579H8.316L8.32002 9.1656C8.34409 8.78844 8.45376 8.4621 8.64903 8.18658C8.8443 7.91106 9.10912 7.6984 9.44349 7.54861C9.78053 7.39614 10.1737 7.3199 10.6231 7.3199C11.0859 7.3199 11.4871 7.38677 11.8269 7.52052C12.1666 7.65427 12.4287 7.84151 12.6133 8.08226C12.7979 8.32032 12.8901 8.60119 12.8901 8.92486V8.93288C12.8901 9.1763 12.8353 9.38896 12.7256 9.57086C12.616 9.75008 12.4702 9.89586 12.2883 10.0082C12.1091 10.1206 11.9138 10.1981 11.7025 10.2409V10.273C12.1412 10.3185 12.4889 10.4549 12.7457 10.6823C13.0025 10.9097 13.1309 11.2106 13.1309 11.5851V11.5931C13.1309 11.9703 13.0292 12.2966 12.8259 12.5721C12.6253 12.8476 12.3391 13.0603 11.9673 13.2101C11.5955 13.3572 11.1514 13.4308 10.6352 13.4308Z" fill="white"/>
<defs>
<filter id="filter0_d_599_1289" x="5.93473" y="10.5877" width="9.13041" height="16.4499" filterUnits="userSpaceOnUse" color-interpolation-filters="sRGB">
<feFlood flood-opacity="0" result="BackgroundImageFix"/>
<feColorMatrix in="SourceAlpha" type="matrix" values="0 0 0 0 0 0 0 0 0 0 0 0 0 0 0 0 0 0 127 0" result="hardAlpha"/>
<feOffset dy="0.913043"/>
<feGaussianBlur stdDeviation="0.456522"/>
<feColorMatrix type="matrix" values="0 0 0 0 0.333333 0 0 0 0 0.819608 0 0 0 0 0.615686 0 0 0 0.2 0"/>
<feBlend mode="darken" in2="BackgroundImageFix" result="effect1_dropShadow_599_1289"/>
<feBlend mode="normal" in="SourceGraphic" in2="effect1_dropShadow_599_1289" result="shape"/>
</filter>
<filter id="filter1_d_599_1289" x="2.3549" y="2.85756" width="16.2903" height="15.2336" filterUnits="userSpaceOnUse" color-interpolation-filters="sRGB">
<feFlood flood-opacity="0" result="BackgroundImageFix"/>
<feColorMatrix in="SourceAlpha" type="matrix" values="0 0 0 0 0 0 0 0 0 0 0 0 0 0 0 0 0 0 127 0" result="hardAlpha"/>
<feOffset dy="0.456522"/>
<feGaussianBlur stdDeviation="0.456522"/>
<feColorMatrix type="matrix" values="0 0 0 0 0.95 0 0 0 0 0.442079 0 0 0 0 0 0 0 0 0.8 0"/>
<feBlend mode="normal" in2="BackgroundImageFix" result="effect1_dropShadow_599_1289"/>
<feBlend mode="normal" in="SourceGraphic" in2="effect1_dropShadow_599_1289" result="shape"/>
</filter>
<linearGradient id="paint0_linear_599_1289" x1="0" y1="0.5" x2="0" y2="20.6754" gradientUnits="userSpaceOnUse">
<stop stop-color="#FD9C43"/>
<stop offset="1" stop-color="#F27E1D"/>
</linearGradient>
<linearGradient id="paint1_linear_599_1289" x1="3.19568" y1="3.57017" x2="3.19568" y2="17.6053" gradientUnits="userSpaceOnUse">
<stop stop-color="#FFD17B"/>
<stop offset="1" stop-color="#FBA152"/>
</linearGradient>
<linearGradient id="paint2_linear_599_1289" x1="3.87708" y1="3.57017" x2="3.87708" y2="16.296" gradientUnits="userSpaceOnUse">
<stop stop-color="#F58425" stop-opacity="0.2"/>
<stop offset="1" stop-color="#F58425" stop-opacity="0.01"/>
</linearGradient>
<linearGradient id="paint3_linear_599_1289" x1="3.87708" y1="3.57017" x2="3.87708" y2="16.296" gradientUnits="userSpaceOnUse">
<stop stop-color="#F58425" stop-opacity="0.2"/>
<stop offset="1" stop-color="#F58425" stop-opacity="0.01"/>
</linearGradient>
</defs>
</svg>
