<svg width="21" height="28" viewBox="0 0 21 28" fill="none" xmlns="http://www.w3.org/2000/svg">
<g filter="url(#filter0_d_599_1263)">
<path fill-rule="evenodd" clip-rule="evenodd" d="M6.84778 10.7065H14.1521V25.0448C14.1521 25.3868 13.79 25.6074 13.4861 25.4505L10.5 23.9084L7.51377 25.4505C7.20992 25.6074 6.84778 25.3868 6.84778 25.0448V10.7065Z" fill="#7F45F6"/>
</g>
<mask id="mask0_599_1263" style="mask-type:luminance" maskUnits="userSpaceOnUse" x="6" y="10" width="9" height="16">
<path fill-rule="evenodd" clip-rule="evenodd" d="M6.84778 10.7065H14.1521V25.0448C14.1521 25.3868 13.79 25.6074 13.4861 25.4505L10.5 23.9084L7.51377 25.4505C7.20992 25.6074 6.84778 25.3868 6.84778 25.0448V10.7065Z" fill="white"/>
</mask>
<g mask="url(#mask0_599_1263)">
<path fill-rule="evenodd" clip-rule="evenodd" d="M8.67395 17.8067H12.3261V25.7944H8.67395V17.8067Z" fill="white"/>
</g>
<path style="mix-blend-mode:multiply" opacity="0.2" fill-rule="evenodd" clip-rule="evenodd" d="M9.44666 2.13149C10.0781 1.68551 10.922 1.68551 11.5535 2.13149L19.3774 7.65697C20.0356 8.12184 20.3113 8.96321 20.0558 9.72748L17.0887 18.6041C16.8397 19.349 16.1423 19.8513 15.3568 19.8513H5.64335C4.8579 19.8513 4.16045 19.349 3.91145 18.6041L0.944331 9.72748C0.688863 8.96321 0.964567 8.12183 1.6228 7.65697L9.44666 2.13149Z" fill="#0298F3"/>
<path fill-rule="evenodd" clip-rule="evenodd" d="M9.44658 1.24396C10.0781 0.797991 10.9219 0.797991 11.5534 1.24396L19.3773 6.76944C20.0355 7.23431 20.3112 8.07569 20.0558 8.83996L17.0886 17.7166C16.8396 18.4615 16.1422 18.9637 15.3567 18.9637H5.64326C4.85782 18.9637 4.16037 18.4615 3.91137 17.7166L0.944247 8.83996C0.68878 8.07569 0.964484 7.23431 1.62272 6.76944L9.44658 1.24396Z" fill="url(#paint0_linear_599_1263)" stroke="#FEFFFF" stroke-opacity="0.2" stroke-width="0.456522"/>
<mask id="mask1_599_1263" style="mask-type:luminance" maskUnits="userSpaceOnUse" x="0" y="0" width="21" height="20">
<path fill-rule="evenodd" clip-rule="evenodd" d="M9.44658 1.24396C10.0781 0.797991 10.9219 0.797991 11.5534 1.24396L19.3773 6.76944C20.0355 7.23431 20.3112 8.07569 20.0558 8.83996L17.0886 17.7166C16.8396 18.4615 16.1422 18.9637 15.3567 18.9637H5.64326C4.85782 18.9637 4.16037 18.4615 3.91137 17.7166L0.944247 8.83996C0.68878 8.07569 0.964484 7.23431 1.62272 6.76944L9.44658 1.24396Z" fill="white" stroke="white" stroke-width="0.456522"/>
</mask>
<g mask="url(#mask1_599_1263)">
<path d="M11.4391 1.43754C10.8791 1.04203 10.1208 1.04203 9.56078 1.43754L1.72138 6.97399C1.16136 7.3695 0.927026 8.07054 1.14093 8.71048L4.13532 17.6687C4.34923 18.3086 4.96272 18.7419 5.65494 18.7419H15.345C16.0372 18.7419 16.6507 18.3086 16.8646 17.6687L19.859 8.71048C20.0729 8.07054 19.8386 7.3695 19.2785 6.97399L11.4391 1.43754Z" stroke="#94B4BD" stroke-width="0.456522" stroke-linecap="round"/>
<path d="M16.8646 17.6687L19.859 8.71051" stroke="#B1CDD0" stroke-width="0.456522" stroke-linecap="round"/>
<path d="M1.14099 8.71051L4.13538 17.6687" stroke="#B1CDD0" stroke-width="0.456522" stroke-linecap="round"/>
<path d="M19.859 8.71048C20.0729 8.07054 19.8386 7.3695 19.2785 6.97399L11.4391 1.43754C10.8791 1.04203 10.1208 1.04203 9.56078 1.43754L1.72138 6.97399C1.16136 7.3695 0.927026 8.07054 1.14093 8.71048" stroke="#C3E6E7" stroke-width="0.456522" stroke-linecap="round"/>
<path opacity="0.4" d="M11.4392 1.43754C10.8792 1.04203 10.1209 1.04203 9.56083 1.43754L1.72144 6.97399" stroke="#E5FEFF" stroke-width="0.456522" stroke-linecap="round"/>
<path d="M9.5608 1.43752L7.60095 2.82163" stroke="white" stroke-width="0.456522" stroke-linecap="round"/>
</g>
<g filter="url(#filter1_d_599_1263)">
<path fill-rule="evenodd" clip-rule="evenodd" d="M9.97331 3.97831C10.2891 3.75532 10.711 3.75532 11.0267 3.97831L16.8925 8.12089C17.2216 8.35332 17.3594 8.77401 17.2317 9.15615L15.0019 15.8271C14.8774 16.1995 14.5286 16.4507 14.1359 16.4507H6.86414C6.47142 16.4507 6.1227 16.1995 5.9982 15.8271L3.76835 9.15615C3.64062 8.77401 3.77847 8.35332 4.10758 8.12089L9.97331 3.97831Z" fill="url(#paint1_linear_599_1263)"/>
<path d="M11.1584 3.79186C10.7637 3.51312 10.2363 3.51312 9.84164 3.79186L3.97591 7.93444C3.56451 8.22498 3.3922 8.75084 3.55186 9.22851L5.78171 15.8994C5.93734 16.365 6.37324 16.6789 6.86414 16.6789H14.1359C14.6268 16.6789 15.0627 16.365 15.2183 15.8994L17.4482 9.22851C17.6079 8.75084 17.4355 8.22498 17.0241 7.93444L11.1584 3.79186Z" stroke="#94A0A4" stroke-opacity="0.06" stroke-width="0.456522"/>
</g>
<mask id="mask2_599_1263" style="mask-type:luminance" maskUnits="userSpaceOnUse" x="3" y="3" width="15" height="14">
<path fill-rule="evenodd" clip-rule="evenodd" d="M9.97331 3.97831C10.2891 3.75532 10.711 3.75532 11.0267 3.97831L16.8925 8.12089C17.2216 8.35332 17.3594 8.77401 17.2317 9.15615L15.0019 15.8271C14.8774 16.1995 14.5286 16.4507 14.1359 16.4507H6.86414C6.47142 16.4507 6.1227 16.1995 5.9982 15.8271L3.76835 9.15615C3.64062 8.77401 3.77847 8.35332 4.10758 8.12089L9.97331 3.97831Z" fill="white"/>
</mask>
<g mask="url(#mask2_599_1263)">
<g style="mix-blend-mode:multiply" opacity="0.2">
<path fill-rule="evenodd" clip-rule="evenodd" d="M10.5 10.7065L3.19568 12.4816V8.93146L10.5 10.7065ZM10.5 10.7065L12.3261 3.60633H8.67394L10.5 10.7065ZM10.5 10.7065L17.8044 8.93146V12.4816L10.5 10.7065ZM10.5 10.7065L14.3737 4.43077L16.9562 6.94107L10.5 10.7065ZM10.5 10.7065L14.3737 16.9822L16.9562 14.4719L10.5 10.7065ZM10.5 10.7065L8.67394 17.8067H12.3261L10.5 10.7065ZM10.5 10.7065L6.62631 16.9822L4.04383 14.4719L10.5 10.7065Z" fill="url(#paint2_linear_599_1263)"/>
<path d="M6.62631 4.43077L4.04383 6.94107L10.5 10.7065L6.62631 4.43077Z" fill="url(#paint3_linear_599_1263)"/>
</g>
<path d="M9.36339 4.68334C9.04645 4.90718 8.8017 5.08003 8.62915 5.20189" stroke="white" stroke-width="0.456522" stroke-linecap="round"/>
</g>
<path d="M8.78138 13.3382V12.2067L10.5549 10.6459C10.8518 10.3864 11.0805 10.1751 11.241 10.012C11.4015 9.84611 11.5125 9.70701 11.574 9.59466C11.6382 9.48232 11.6703 9.37532 11.6703 9.27367V9.25361C11.6703 9.12789 11.6422 9.01955 11.586 8.92861C11.5326 8.83766 11.4536 8.76811 11.3493 8.71996C11.2477 8.67181 11.126 8.64774 10.9842 8.64774C10.8371 8.64774 10.706 8.6785 10.591 8.74002C10.4786 8.80155 10.3904 8.88581 10.3262 8.9928C10.262 9.0998 10.2299 9.22285 10.2299 9.36195V9.39806H8.68107V9.36596C8.68107 8.96739 8.77871 8.62099 8.97398 8.32675C9.17192 8.02983 9.44744 7.79978 9.80053 7.63661C10.1563 7.47077 10.5709 7.38785 11.0444 7.38785C11.5045 7.38785 11.903 7.46007 12.2401 7.60451C12.5798 7.74629 12.8433 7.94824 13.0305 8.21039C13.2178 8.46986 13.3114 8.77614 13.3114 9.12923V9.14929C13.3114 9.36596 13.2632 9.58263 13.1669 9.7993C13.0733 10.016 12.9195 10.2447 12.7055 10.4854C12.4915 10.7262 12.2066 10.9923 11.8509 11.2839L10.5549 12.3472L11.0283 11.6209V12.3472L10.5549 12.0382H13.3836V13.3382H8.78138Z" fill="white"/>
<g filter="url(#filter2_d_599_1263)">
<path fill-rule="evenodd" clip-rule="evenodd" d="M8.0381 16.7061L7.88004 16.6455C7.78337 16.6085 7.73591 16.5023 7.77404 16.4083C7.79316 16.3612 7.83155 16.3238 7.88004 16.3053L8.0381 16.2447C8.22037 16.1748 8.36465 16.0345 8.43654 15.8574L8.49887 15.7037C8.537 15.6097 8.64627 15.5636 8.74294 15.6007C8.79143 15.6193 8.82982 15.6566 8.84894 15.7037L8.91128 15.8574C8.98317 16.0345 9.12745 16.1748 9.30972 16.2447L9.46778 16.3053C9.56445 16.3423 9.61191 16.4485 9.57378 16.5425C9.55465 16.5896 9.51627 16.6269 9.46778 16.6455L9.30972 16.7061C9.12745 16.776 8.98317 16.9163 8.91128 17.0934L8.84894 17.2471C8.81082 17.341 8.70154 17.3872 8.60488 17.3501C8.55638 17.3315 8.518 17.2942 8.49887 17.2471L8.43654 17.0934C8.36465 16.9163 8.22037 16.776 8.0381 16.7061Z" fill="white"/>
</g>
<g filter="url(#filter3_d_599_1263)">
<path fill-rule="evenodd" clip-rule="evenodd" d="M15.8683 8.99799L15.6707 8.92225C15.5499 8.87592 15.4905 8.74315 15.5382 8.62569C15.5621 8.56677 15.6101 8.52013 15.6707 8.49689L15.8683 8.42115C16.0961 8.3338 16.2765 8.15849 16.3663 7.93702L16.4442 7.74497C16.4919 7.62751 16.6285 7.56985 16.7493 7.61617C16.8099 7.63941 16.8579 7.68605 16.8818 7.74497L16.9597 7.93702C17.0496 8.15849 17.23 8.3338 17.4578 8.42115L17.6554 8.49689C17.7762 8.54322 17.8355 8.67599 17.7879 8.79345C17.764 8.85237 17.716 8.89901 17.6554 8.92225L17.4578 8.99799C17.23 9.08534 17.0496 9.26065 16.9597 9.48212L16.8818 9.67417C16.8342 9.79163 16.6976 9.84929 16.5767 9.80297C16.5161 9.77973 16.4681 9.73309 16.4442 9.67417L16.3663 9.48212C16.2765 9.26065 16.0961 9.08534 15.8683 8.99799Z" fill="white"/>
</g>
<g filter="url(#filter4_d_599_1263)">
<path fill-rule="evenodd" clip-rule="evenodd" d="M4.77311 11.1014L4.65457 11.056C4.58206 11.0282 4.54647 10.9485 4.57506 10.8781C4.58941 10.8427 4.6182 10.8147 4.65457 10.8008L4.77311 10.7553C4.90981 10.7029 5.01802 10.5977 5.07194 10.4649L5.11869 10.3496C5.14729 10.2792 5.22924 10.2446 5.30174 10.2723C5.33811 10.2863 5.3669 10.3143 5.38124 10.3496L5.428 10.4649C5.48191 10.5977 5.59012 10.7029 5.72683 10.7553L5.84537 10.8008C5.91787 10.8286 5.95347 10.9082 5.92487 10.9787C5.91053 11.0141 5.88174 11.0421 5.84537 11.056L5.72683 11.1014C5.59012 11.1538 5.48191 11.259 5.428 11.3919L5.38124 11.5071C5.35265 11.5776 5.2707 11.6122 5.19819 11.5844C5.16183 11.5705 5.13304 11.5425 5.11869 11.5071L5.07194 11.3919C5.01802 11.259 4.90981 11.1538 4.77311 11.1014Z" fill="white"/>
</g>
<defs>
<filter id="filter0_d_599_1263" x="5.93473" y="10.7065" width="9.13041" height="16.6216" filterUnits="userSpaceOnUse" color-interpolation-filters="sRGB">
<feFlood flood-opacity="0" result="BackgroundImageFix"/>
<feColorMatrix in="SourceAlpha" type="matrix" values="0 0 0 0 0 0 0 0 0 0 0 0 0 0 0 0 0 0 127 0" result="hardAlpha"/>
<feOffset dy="0.913043"/>
<feGaussianBlur stdDeviation="0.456522"/>
<feColorMatrix type="matrix" values="0 0 0 0 0.333333 0 0 0 0 0.790431 0 0 0 0 0.819608 0 0 0 0.2 0"/>
<feBlend mode="darken" in2="BackgroundImageFix" result="effect1_dropShadow_599_1263"/>
<feBlend mode="normal" in="SourceGraphic" in2="effect1_dropShadow_599_1263" result="shape"/>
</filter>
<filter id="filter1_d_599_1263" x="2.3516" y="2.89802" width="16.2969" height="15.3787" filterUnits="userSpaceOnUse" color-interpolation-filters="sRGB">
<feFlood flood-opacity="0" result="BackgroundImageFix"/>
<feColorMatrix in="SourceAlpha" type="matrix" values="0 0 0 0 0 0 0 0 0 0 0 0 0 0 0 0 0 0 127 0" result="hardAlpha"/>
<feOffset dy="0.456522"/>
<feGaussianBlur stdDeviation="0.456522"/>
<feColorMatrix type="matrix" values="0 0 0 0 0.0196078 0 0 0 0 0.443137 0 0 0 0 0.643137 0 0 0 0.12 0"/>
<feBlend mode="normal" in2="BackgroundImageFix" result="effect1_dropShadow_599_1263"/>
<feBlend mode="normal" in="SourceGraphic" in2="effect1_dropShadow_599_1263" result="shape"/>
</filter>
<filter id="filter2_d_599_1263" x="6.84782" y="14.6748" width="3.65214" height="3.60113" filterUnits="userSpaceOnUse" color-interpolation-filters="sRGB">
<feFlood flood-opacity="0" result="BackgroundImageFix"/>
<feColorMatrix in="SourceAlpha" type="matrix" values="0 0 0 0 0 0 0 0 0 0 0 0 0 0 0 0 0 0 127 0" result="hardAlpha"/>
<feOffset/>
<feGaussianBlur stdDeviation="0.456522"/>
<feColorMatrix type="matrix" values="0 0 0 0 0.705882 0 0 0 0 0.823529 0 0 0 0 0.831373 0 0 0 1 0"/>
<feBlend mode="normal" in2="BackgroundImageFix" result="effect1_dropShadow_599_1263"/>
<feBlend mode="normal" in="SourceGraphic" in2="effect1_dropShadow_599_1263" result="shape"/>
</filter>
<filter id="filter3_d_599_1263" x="14.6087" y="6.68712" width="4.10868" height="4.04489" filterUnits="userSpaceOnUse" color-interpolation-filters="sRGB">
<feFlood flood-opacity="0" result="BackgroundImageFix"/>
<feColorMatrix in="SourceAlpha" type="matrix" values="0 0 0 0 0 0 0 0 0 0 0 0 0 0 0 0 0 0 127 0" result="hardAlpha"/>
<feOffset/>
<feGaussianBlur stdDeviation="0.456522"/>
<feColorMatrix type="matrix" values="0 0 0 0 0.705882 0 0 0 0 0.823529 0 0 0 0 0.831373 0 0 0 1 0"/>
<feBlend mode="normal" in2="BackgroundImageFix" result="effect1_dropShadow_599_1263"/>
<feBlend mode="normal" in="SourceGraphic" in2="effect1_dropShadow_599_1263" result="shape"/>
</filter>
<filter id="filter4_d_599_1263" x="3.65214" y="9.3497" width="3.19559" height="3.15737" filterUnits="userSpaceOnUse" color-interpolation-filters="sRGB">
<feFlood flood-opacity="0" result="BackgroundImageFix"/>
<feColorMatrix in="SourceAlpha" type="matrix" values="0 0 0 0 0 0 0 0 0 0 0 0 0 0 0 0 0 0 127 0" result="hardAlpha"/>
<feOffset/>
<feGaussianBlur stdDeviation="0.456522"/>
<feColorMatrix type="matrix" values="0 0 0 0 0.705882 0 0 0 0 0.823529 0 0 0 0 0.831373 0 0 0 1 0"/>
<feBlend mode="normal" in2="BackgroundImageFix" result="effect1_dropShadow_599_1263"/>
<feBlend mode="normal" in="SourceGraphic" in2="effect1_dropShadow_599_1263" result="shape"/>
</filter>
<linearGradient id="paint0_linear_599_1263" x1="0" y1="0.5" x2="0" y2="20.913" gradientUnits="userSpaceOnUse">
<stop stop-color="#C4ECEB"/>
<stop offset="1" stop-color="#A7BCC1"/>
</linearGradient>
<linearGradient id="paint1_linear_599_1263" x1="3.19568" y1="3.60633" x2="3.19568" y2="17.8067" gradientUnits="userSpaceOnUse">
<stop stop-color="#F0FBFE"/>
<stop offset="1" stop-color="#C0DCDC"/>
</linearGradient>
<linearGradient id="paint2_linear_599_1263" x1="3.87119" y1="3.60633" x2="3.87119" y2="16.4934" gradientUnits="userSpaceOnUse">
<stop stop-color="#AFD4D6"/>
<stop offset="1" stop-color="#B9D9DB" stop-opacity="0.57"/>
</linearGradient>
<linearGradient id="paint3_linear_599_1263" x1="3.87119" y1="3.60633" x2="3.87119" y2="16.4934" gradientUnits="userSpaceOnUse">
<stop stop-color="#AFD4D6"/>
<stop offset="1" stop-color="#B9D9DB" stop-opacity="0.57"/>
</linearGradient>
</defs>
</svg>
