<svg width="25" height="24" viewBox="0 0 25 24" fill="none" xmlns="http://www.w3.org/2000/svg">
<path d="M14.125 4.1L14.125 19.9C14.125 21.4 14.765 22 16.355 22L20.395 22C21.985 22 22.625 21.4 22.625 19.9L22.625 4.1C22.625 2.6 21.985 2 20.395 2L16.355 2C14.765 2 14.125 2.6 14.125 4.1Z" stroke="#5B2EAC" stroke-width="1.5" stroke-linecap="round" stroke-linejoin="round"/>
<path d="M2.625 11.1L2.625 19.9C2.625 21.4 3.265 22 4.855 22L8.895 22C10.485 22 11.125 21.4 11.125 19.9L11.125 11.1C11.125 9.6 10.485 9 8.895 9L4.855 9C3.265 9 2.625 9.6 2.625 11.1Z" stroke="#5B2EAC" stroke-width="1.5" stroke-linecap="round" stroke-linejoin="round"/>
</svg>
