<svg width="25" height="24" viewBox="0 0 25 24" fill="none" xmlns="http://www.w3.org/2000/svg">
<path d="M9.28506 10.87C9.18506 10.86 9.06506 10.86 8.95506 10.87C6.57506 10.79 4.68506 8.84 4.68506 6.44C4.68506 3.99 6.66506 2 9.12506 2C11.5751 2 13.5651 3.99 13.5651 6.44C13.5551 8.84 11.6651 10.79 9.28506 10.87Z" stroke="#1A1A1A" stroke-width="1.5" stroke-linecap="round" stroke-linejoin="round"/>
<path d="M16.535 4C18.475 4 20.035 5.57 20.035 7.5C20.035 9.39 18.535 10.93 16.665 11C16.585 10.99 16.495 10.99 16.405 11" stroke="#1A1A1A" stroke-width="1.5" stroke-linecap="round" stroke-linejoin="round"/>
<path d="M4.28497 14.56C1.86497 16.18 1.86497 18.82 4.28497 20.43C7.03497 22.27 11.545 22.27 14.295 20.43C16.715 18.81 16.715 16.17 14.295 14.56C11.555 12.73 7.04497 12.73 4.28497 14.56Z" stroke="#1A1A1A" stroke-width="1.5" stroke-linecap="round" stroke-linejoin="round"/>
<path d="M18.465 20C19.185 19.85 19.865 19.56 20.425 19.13C21.985 17.96 21.985 16.03 20.425 14.86C19.875 14.44 19.205 14.16 18.495 14" stroke="#1A1A1A" stroke-width="1.5" stroke-linecap="round" stroke-linejoin="round"/>
</svg>
