<svg width="125" height="64" viewBox="0 0 125 64" fill="none" xmlns="http://www.w3.org/2000/svg">
<rect width="125" height="64" fill="white"/>
<path d="M59.66 18.87C59.56 18.86 59.44 18.86 59.33 18.87C56.95 18.79 55.06 16.84 55.06 14.44C55.06 11.99 57.04 10 59.5 10C61.95 10 63.94 11.99 63.94 14.44C63.93 16.84 62.04 18.79 59.66 18.87Z" stroke="#1A1A1A" stroke-width="1.5" stroke-linecap="round" stroke-linejoin="round"/>
<path d="M66.91 12C68.85 12 70.41 13.57 70.41 15.5C70.41 17.39 68.91 18.93 67.04 19C66.96 18.99 66.87 18.99 66.78 19" stroke="#1A1A1A" stroke-width="1.5" stroke-linecap="round" stroke-linejoin="round"/>
<path d="M54.66 22.56C52.24 24.18 52.24 26.82 54.66 28.43C57.41 30.27 61.92 30.27 64.67 28.43C67.09 26.81 67.09 24.17 64.67 22.56C61.93 20.73 57.42 20.73 54.66 22.56Z" stroke="#1A1A1A" stroke-width="1.5" stroke-linecap="round" stroke-linejoin="round"/>
<path d="M68.84 28C69.56 27.85 70.24 27.56 70.8 27.13C72.36 25.96 72.36 24.03 70.8 22.86C70.25 22.44 69.58 22.16 68.87 22" stroke="#1A1A1A" stroke-width="1.5" stroke-linecap="round" stroke-linejoin="round"/>
<path d="M41.998 52V43.5449H47.2773V44.6816H43.3105V47.3535H46.9434V48.4609H43.3105V52H41.998ZM48.8359 52V45.6367H50.1074V46.5977H50.207C50.3203 46.2578 50.5195 45.9941 50.8047 45.8066C51.0938 45.6191 51.4492 45.5254 51.8711 45.5254C51.9766 45.5254 52.0801 45.5312 52.1816 45.543C52.2832 45.5547 52.3652 45.5684 52.4277 45.584V46.7559C52.3145 46.7324 52.2012 46.7148 52.0879 46.7031C51.9785 46.6914 51.8633 46.6855 51.7422 46.6855C51.418 46.6855 51.1328 46.748 50.8867 46.873C50.6445 46.998 50.4531 47.1738 50.3125 47.4004C50.1758 47.623 50.1074 47.8887 50.1074 48.1973V52H48.8359ZM53.6699 52V45.6367H54.9473V52H53.6699ZM54.3145 44.5C54.0957 44.5 53.9082 44.4219 53.752 44.2656C53.5957 44.1094 53.5176 43.9219 53.5176 43.7031C53.5176 43.4844 53.5957 43.2988 53.752 43.1465C53.9082 42.9902 54.0957 42.9121 54.3145 42.9121C54.5332 42.9121 54.7207 42.9902 54.877 43.1465C55.0332 43.2988 55.1113 43.4844 55.1113 43.7031C55.1113 43.9219 55.0332 44.1094 54.877 44.2656C54.7207 44.4219 54.5332 44.5 54.3145 44.5ZM59.4648 52.123C58.8438 52.123 58.3105 51.9902 57.8652 51.7246C57.4199 51.4551 57.0762 51.0742 56.834 50.582C56.5957 50.0898 56.4766 49.5078 56.4766 48.8359V48.8301C56.4766 48.166 56.5957 47.5859 56.834 47.0898C57.0762 46.5938 57.416 46.207 57.8535 45.9297C58.2949 45.6523 58.8105 45.5137 59.4004 45.5137C59.9941 45.5137 60.5039 45.6465 60.9297 45.9121C61.3594 46.1777 61.6895 46.5508 61.9199 47.0312C62.1504 47.5078 62.2656 48.0664 62.2656 48.707V49.1523H57.1211V48.2441H61.6328L61.0234 49.0879V48.5781C61.0234 48.125 60.9531 47.75 60.8125 47.4531C60.6758 47.1523 60.4863 46.9277 60.2441 46.7793C60.002 46.6309 59.7227 46.5566 59.4062 46.5566C59.0898 46.5566 58.8066 46.6348 58.5566 46.791C58.3105 46.9434 58.1152 47.1699 57.9707 47.4707C57.8301 47.7715 57.7598 48.1406 57.7598 48.5781V49.0879C57.7598 49.5059 57.8301 49.8633 57.9707 50.1602C58.1113 50.457 58.3105 50.6836 58.5684 50.8398C58.8301 50.9961 59.1387 51.0742 59.4941 51.0742C59.7676 51.0742 60.002 51.0371 60.1973 50.9629C60.3965 50.8848 60.5586 50.7891 60.6836 50.6758C60.8125 50.5625 60.9004 50.4512 60.9473 50.3418L60.9707 50.2949H62.2012L62.1895 50.3477C62.1348 50.5586 62.0391 50.7695 61.9023 50.9805C61.7656 51.1875 61.584 51.377 61.3574 51.5488C61.1348 51.7207 60.8652 51.8594 60.5488 51.9648C60.2363 52.0703 59.875 52.123 59.4648 52.123ZM63.7773 52V45.6367H65.0488V46.5977H65.1484C65.3047 46.2578 65.5352 45.9922 65.8398 45.8008C66.1445 45.6094 66.5293 45.5137 66.9941 45.5137C67.709 45.5137 68.2559 45.7188 68.6348 46.1289C69.0137 46.5391 69.2031 47.123 69.2031 47.8809V52H67.9258V48.1797C67.9258 47.6484 67.8145 47.2539 67.5918 46.9961C67.373 46.7344 67.0293 46.6035 66.5605 46.6035C66.252 46.6035 65.9844 46.6719 65.7578 46.8086C65.5312 46.9414 65.3555 47.1328 65.2305 47.3828C65.1094 47.6289 65.0488 47.9238 65.0488 48.2676V52H63.7773ZM73.293 52.1055C72.7617 52.1055 72.2969 51.9727 71.8984 51.707C71.5039 51.4375 71.1973 51.0566 70.9785 50.5645C70.7637 50.0723 70.6562 49.4922 70.6562 48.8242V48.8125C70.6562 48.1406 70.7637 47.5586 70.9785 47.0664C71.1934 46.5742 71.498 46.1953 71.8926 45.9297C72.2871 45.6602 72.7539 45.5254 73.293 45.5254C73.5859 45.5254 73.8594 45.5723 74.1133 45.666C74.3672 45.7559 74.5918 45.8848 74.7871 46.0527C74.9824 46.2168 75.1367 46.4141 75.25 46.6445H75.3438V43.1406H76.6211V52H75.3438V50.998H75.25C75.125 51.2285 74.9668 51.4277 74.7754 51.5957C74.584 51.7598 74.3633 51.8867 74.1133 51.9766C73.8633 52.0625 73.5898 52.1055 73.293 52.1055ZM73.6562 51.0156C74.0078 51.0156 74.3125 50.9277 74.5703 50.752C74.8281 50.5762 75.0254 50.3242 75.1621 49.9961C75.2988 49.6641 75.3672 49.2734 75.3672 48.8242V48.8125C75.3672 48.3594 75.2969 47.9688 75.1562 47.6406C75.0195 47.3125 74.8223 47.0605 74.5645 46.8848C74.3105 46.7051 74.0078 46.6152 73.6562 46.6152C73.3047 46.6152 73 46.7051 72.7422 46.8848C72.4883 47.0605 72.293 47.3125 72.1562 47.6406C72.0234 47.9648 71.957 48.3555 71.957 48.8125V48.8242C71.957 49.2773 72.0234 49.668 72.1562 49.9961C72.293 50.3242 72.4883 50.5762 72.7422 50.752C73 50.9277 73.3047 51.0156 73.6562 51.0156ZM80.8223 52.123C80.3105 52.123 79.8652 52.0488 79.4863 51.9004C79.1074 51.748 78.8066 51.5391 78.584 51.2734C78.3613 51.0039 78.2305 50.6914 78.1914 50.3359V50.3242H79.4688V50.3359C79.5508 50.5742 79.707 50.7676 79.9375 50.916C80.168 51.0645 80.4727 51.1387 80.8516 51.1387C81.1133 51.1387 81.3418 51.1016 81.5371 51.0273C81.7363 50.9531 81.8926 50.8496 82.0059 50.7168C82.1191 50.584 82.1758 50.4316 82.1758 50.2598V50.248C82.1758 50.0488 82.0957 49.8809 81.9355 49.7441C81.7754 49.6074 81.5117 49.4961 81.1445 49.4102L80.125 49.1758C79.7266 49.0859 79.3965 48.9629 79.1348 48.8066C78.873 48.6504 78.6797 48.459 78.5547 48.2324C78.4297 48.002 78.3672 47.7324 78.3672 47.4238V47.418C78.3672 47.0469 78.4727 46.7188 78.6836 46.4336C78.8945 46.1445 79.1855 45.9199 79.5566 45.7598C79.9316 45.5957 80.3594 45.5137 80.8398 45.5137C81.3242 45.5137 81.7461 45.5898 82.1055 45.7422C82.4688 45.8906 82.7559 46.0977 82.9668 46.3633C83.1777 46.625 83.3027 46.9297 83.3418 47.2773V47.2832H82.123V47.2715C82.0645 47.0488 81.9238 46.8633 81.7012 46.7148C81.4824 46.5664 81.1934 46.4922 80.834 46.4922C80.6035 46.4922 80.3984 46.5293 80.2188 46.6035C80.0391 46.6738 79.8965 46.7734 79.791 46.9023C79.6895 47.0273 79.6387 47.1758 79.6387 47.3477V47.3594C79.6387 47.4922 79.6719 47.6094 79.7383 47.7109C79.8086 47.8086 79.918 47.8965 80.0664 47.9746C80.2148 48.0488 80.4062 48.1152 80.6406 48.1738L81.6543 48.4023C82.2637 48.5469 82.7168 48.7559 83.0137 49.0293C83.3145 49.3027 83.4648 49.6699 83.4648 50.1309V50.1426C83.4648 50.5332 83.3496 50.8789 83.1191 51.1797C82.8887 51.4766 82.5742 51.709 82.1758 51.877C81.7812 52.041 81.3301 52.123 80.8223 52.123Z" fill="#8E8E93"/>
</svg>
