<svg width="125" height="64" viewBox="0 0 125 64" fill="none" xmlns="http://www.w3.org/2000/svg">
<rect width="125" height="64" fill="white"/>
<path d="M59.52 10.84L54.13 15.04C53.23 15.74 52.5 17.23 52.5 18.36V25.77C52.5 28.09 54.39 29.99 56.71 29.99H68.29C70.61 29.99 72.5 28.09 72.5 25.78V18.5C72.5 17.29 71.69 15.74 70.7 15.05L64.52 10.72C63.12 9.74001 60.87 9.79001 59.52 10.84Z" stroke="#5B2EAC" stroke-width="1.5" stroke-linecap="round" stroke-linejoin="round"/>
<path d="M62.5 25.99V22.99" stroke="#5B2EAC" stroke-width="1.5" stroke-linecap="round" stroke-linejoin="round"/>
<path d="M46.2812 52V43.5449H47.793V47.0605H51.9062V43.5449H53.4121V52H51.9062V48.332H47.793V52H46.2812ZM58.1172 52.1289C57.4805 52.1289 56.9316 51.9961 56.4707 51.7305C56.0098 51.4609 55.6543 51.0781 55.4043 50.582C55.1582 50.0859 55.0352 49.4922 55.0352 48.8008V48.7891C55.0352 48.1055 55.1602 47.5156 55.4102 47.0195C55.6602 46.5195 56.0137 46.1367 56.4707 45.8711C56.9316 45.6055 57.4805 45.4727 58.1172 45.4727C58.7539 45.4727 59.3008 45.6055 59.7578 45.8711C60.2188 46.1367 60.5742 46.5176 60.8242 47.0137C61.0742 47.5098 61.1992 48.1016 61.1992 48.7891V48.8008C61.1992 49.4922 61.0742 50.0859 60.8242 50.582C60.5781 51.0781 60.2246 51.4609 59.7637 51.7305C59.3066 51.9961 58.7578 52.1289 58.1172 52.1289ZM58.1172 50.9453C58.4531 50.9453 58.7383 50.8613 58.9727 50.6934C59.2109 50.5215 59.3926 50.2773 59.5176 49.9609C59.6426 49.6406 59.7051 49.2559 59.7051 48.8066V48.7949C59.7051 48.3418 59.6426 47.957 59.5176 47.6406C59.3926 47.3203 59.2109 47.0762 58.9727 46.9082C58.7383 46.7363 58.4531 46.6504 58.1172 46.6504C57.7812 46.6504 57.4941 46.7363 57.2559 46.9082C57.0176 47.0762 56.8359 47.3203 56.7109 47.6406C56.5859 47.957 56.5234 48.3418 56.5234 48.7949V48.8066C56.5234 49.2559 56.5859 49.6406 56.7109 49.9609C56.8359 50.2812 57.0156 50.5254 57.25 50.6934C57.4883 50.8613 57.7773 50.9453 58.1172 50.9453ZM62.6641 52V45.5957H64.123V46.5918H64.2227C64.3594 46.2363 64.5801 45.9609 64.8848 45.7656C65.1934 45.5703 65.5586 45.4727 65.9805 45.4727C66.2695 45.4727 66.5293 45.5195 66.7598 45.6133C66.9941 45.707 67.1953 45.8398 67.3633 46.0117C67.5312 46.1836 67.6602 46.3887 67.75 46.627H67.8555C67.9609 46.3965 68.1074 46.1953 68.2949 46.0234C68.4863 45.8477 68.709 45.7129 68.9629 45.6191C69.2207 45.5215 69.498 45.4727 69.7949 45.4727C70.2246 45.4727 70.5918 45.5586 70.8965 45.7305C71.2051 45.8984 71.4414 46.1406 71.6055 46.457C71.7734 46.7734 71.8574 47.1523 71.8574 47.5938V52H70.3984V47.9512C70.3984 47.6699 70.3555 47.4375 70.2695 47.2539C70.1875 47.0703 70.0605 46.9316 69.8887 46.8379C69.7168 46.7441 69.5 46.6973 69.2383 46.6973C68.9844 46.6973 68.7637 46.7559 68.5762 46.873C68.3887 46.9863 68.2422 47.1406 68.1367 47.3359C68.0352 47.5312 67.9844 47.752 67.9844 47.998V52H66.5254V47.8457C66.5254 47.6074 66.4785 47.4023 66.3848 47.2305C66.2949 47.0586 66.1621 46.9277 65.9863 46.8379C65.8145 46.7441 65.6094 46.6973 65.3711 46.6973C65.1328 46.6973 64.918 46.7598 64.7266 46.8848C64.5391 47.0059 64.3906 47.1738 64.2812 47.3887C64.1758 47.5996 64.123 47.8379 64.123 48.1035V52H62.6641ZM76.3164 52.1289C75.6797 52.1289 75.1328 51.9941 74.6758 51.7246C74.2227 51.4551 73.873 51.0723 73.627 50.5762C73.3809 50.0801 73.2578 49.4922 73.2578 48.8125V48.8066C73.2578 48.1348 73.3789 47.5488 73.6211 47.0488C73.8672 46.5488 74.2148 46.1621 74.6641 45.8887C75.1133 45.6113 75.6406 45.4727 76.2461 45.4727C76.8555 45.4727 77.3789 45.6074 77.8164 45.877C78.2578 46.1426 78.5977 46.5156 78.8359 46.9961C79.0742 47.4766 79.1934 48.0391 79.1934 48.6836V49.1641H73.9902V48.1855H78.4785L77.7871 49.0996V48.5195C77.7871 48.0938 77.7227 47.7402 77.5938 47.459C77.4648 47.1777 77.2852 46.9668 77.0547 46.8262C76.8281 46.6855 76.5645 46.6152 76.2637 46.6152C75.9629 46.6152 75.6953 46.6895 75.4609 46.8379C75.2305 46.9824 75.0469 47.1973 74.9102 47.4824C74.7773 47.7637 74.7109 48.1094 74.7109 48.5195V49.1055C74.7109 49.5 74.7773 49.8379 74.9102 50.1191C75.043 50.3965 75.2305 50.6113 75.4727 50.7637C75.7188 50.9121 76.0098 50.9863 76.3457 50.9863C76.6074 50.9863 76.832 50.9492 77.0195 50.875C77.2109 50.7969 77.3652 50.7051 77.4824 50.5996C77.5996 50.4902 77.6816 50.3867 77.7285 50.2891L77.7461 50.248H79.1289L79.1172 50.3008C79.0664 50.5078 78.9727 50.7188 78.8359 50.9336C78.7031 51.1445 78.5215 51.3418 78.291 51.5254C78.0645 51.7051 77.7871 51.8516 77.459 51.9648C77.1309 52.0742 76.75 52.1289 76.3164 52.1289Z" fill="#1A1A1A"/>
</svg>
