<svg width="125" height="64" viewBox="0 0 125 64" fill="none" xmlns="http://www.w3.org/2000/svg">
<rect width="125" height="64" fill="white"/>
<path d="M64 12.1L64 27.9C64 29.4 64.64 30 66.23 30L70.27 30C71.86 30 72.5 29.4 72.5 27.9L72.5 12.1C72.5 10.6 71.86 10 70.27 10L66.23 10C64.64 10 64 10.6 64 12.1Z" stroke="#1A1A1A" stroke-width="1.5" stroke-linecap="round" stroke-linejoin="round"/>
<path d="M52.5 19.1L52.5 27.9C52.5 29.4 53.14 30 54.73 30L58.77 30C60.36 30 61 29.4 61 27.9L61 19.1C61 17.6 60.36 17 58.77 17L54.73 17C53.14 17 52.5 17.6 52.5 19.1Z" stroke="#1A1A1A" stroke-width="1.5" stroke-linecap="round" stroke-linejoin="round"/>
<path d="M26.8223 52V43.5449H28.1348V50.8633H32.1016V52H26.8223ZM35.9922 52.123C35.3711 52.123 34.8379 51.9902 34.3926 51.7246C33.9473 51.4551 33.6035 51.0742 33.3613 50.582C33.123 50.0898 33.0039 49.5078 33.0039 48.8359V48.8301C33.0039 48.166 33.123 47.5859 33.3613 47.0898C33.6035 46.5938 33.9434 46.207 34.3809 45.9297C34.8223 45.6523 35.3379 45.5137 35.9277 45.5137C36.5215 45.5137 37.0312 45.6465 37.457 45.9121C37.8867 46.1777 38.2168 46.5508 38.4473 47.0312C38.6777 47.5078 38.793 48.0664 38.793 48.707V49.1523H33.6484V48.2441H38.1602L37.5508 49.0879V48.5781C37.5508 48.125 37.4805 47.75 37.3398 47.4531C37.2031 47.1523 37.0137 46.9277 36.7715 46.7793C36.5293 46.6309 36.25 46.5566 35.9336 46.5566C35.6172 46.5566 35.334 46.6348 35.084 46.791C34.8379 46.9434 34.6426 47.1699 34.498 47.4707C34.3574 47.7715 34.2871 48.1406 34.2871 48.5781V49.0879C34.2871 49.5059 34.3574 49.8633 34.498 50.1602C34.6387 50.457 34.8379 50.6836 35.0957 50.8398C35.3574 50.9961 35.666 51.0742 36.0215 51.0742C36.2949 51.0742 36.5293 51.0371 36.7246 50.9629C36.9238 50.8848 37.0859 50.7891 37.2109 50.6758C37.3398 50.5625 37.4277 50.4512 37.4746 50.3418L37.498 50.2949H38.7285L38.7168 50.3477C38.6621 50.5586 38.5664 50.7695 38.4297 50.9805C38.293 51.1875 38.1113 51.377 37.8848 51.5488C37.6621 51.7207 37.3926 51.8594 37.0762 51.9648C36.7637 52.0703 36.4023 52.123 35.9922 52.123ZM42.0508 52.1055C41.6484 52.1055 41.2871 52.0293 40.9668 51.877C40.6504 51.7207 40.4004 51.5 40.2168 51.2148C40.0332 50.9297 39.9414 50.5957 39.9414 50.2129V50.2012C39.9414 49.8184 40.0332 49.4922 40.2168 49.2227C40.4043 48.9531 40.6738 48.7422 41.0254 48.5898C41.3809 48.4336 41.8105 48.3398 42.3145 48.3086L44.6641 48.168V49.0645L42.4902 49.2051C42.0527 49.2324 41.7305 49.3262 41.5234 49.4863C41.3164 49.6426 41.2129 49.8633 41.2129 50.1484V50.1602C41.2129 50.4492 41.3242 50.6777 41.5469 50.8457C41.7695 51.0098 42.0508 51.0918 42.3906 51.0918C42.707 51.0918 42.9883 51.0293 43.2344 50.9043C43.4844 50.7754 43.6797 50.6035 43.8203 50.3887C43.9609 50.1699 44.0312 49.9238 44.0312 49.6504V47.6465C44.0312 47.2949 43.9219 47.0273 43.7031 46.8438C43.4883 46.6562 43.168 46.5625 42.7422 46.5625C42.3867 46.5625 42.0957 46.625 41.8691 46.75C41.6465 46.875 41.498 47.0508 41.4238 47.2773L41.4121 47.2949H40.1875L40.1934 47.2539C40.2441 46.9023 40.3828 46.5977 40.6094 46.3398C40.8398 46.0781 41.1406 45.875 41.5117 45.7305C41.8867 45.5859 42.3145 45.5137 42.7949 45.5137C43.3301 45.5137 43.7832 45.5996 44.1543 45.7715C44.5293 45.9395 44.8125 46.1836 45.0039 46.5039C45.1992 46.8203 45.2969 47.2012 45.2969 47.6465V52H44.0312V51.0977H43.9375C43.8125 51.3125 43.6562 51.4961 43.4688 51.6484C43.2812 51.7969 43.0684 51.9102 42.8301 51.9883C42.5918 52.0664 42.332 52.1055 42.0508 52.1055ZM49.4102 52.1055C48.8789 52.1055 48.4141 51.9727 48.0156 51.707C47.6211 51.4375 47.3145 51.0566 47.0957 50.5645C46.8809 50.0723 46.7734 49.4922 46.7734 48.8242V48.8125C46.7734 48.1406 46.8809 47.5586 47.0957 47.0664C47.3105 46.5742 47.6152 46.1953 48.0098 45.9297C48.4043 45.6602 48.8711 45.5254 49.4102 45.5254C49.7031 45.5254 49.9766 45.5723 50.2305 45.666C50.4844 45.7559 50.709 45.8848 50.9043 46.0527C51.0996 46.2168 51.2539 46.4141 51.3672 46.6445H51.4609V43.1406H52.7383V52H51.4609V50.998H51.3672C51.2422 51.2285 51.084 51.4277 50.8926 51.5957C50.7012 51.7598 50.4805 51.8867 50.2305 51.9766C49.9805 52.0625 49.707 52.1055 49.4102 52.1055ZM49.7734 51.0156C50.125 51.0156 50.4297 50.9277 50.6875 50.752C50.9453 50.5762 51.1426 50.3242 51.2793 49.9961C51.416 49.6641 51.4844 49.2734 51.4844 48.8242V48.8125C51.4844 48.3594 51.4141 47.9688 51.2734 47.6406C51.1367 47.3125 50.9395 47.0605 50.6816 46.8848C50.4277 46.7051 50.125 46.6152 49.7734 46.6152C49.4219 46.6152 49.1172 46.7051 48.8594 46.8848C48.6055 47.0605 48.4102 47.3125 48.2734 47.6406C48.1406 47.9648 48.0742 48.3555 48.0742 48.8125V48.8242C48.0742 49.2773 48.1406 49.668 48.2734 49.9961C48.4102 50.3242 48.6055 50.5762 48.8594 50.752C49.1172 50.9277 49.4219 51.0156 49.7734 51.0156ZM57.2969 52.123C56.6758 52.123 56.1426 51.9902 55.6973 51.7246C55.252 51.4551 54.9082 51.0742 54.666 50.582C54.4277 50.0898 54.3086 49.5078 54.3086 48.8359V48.8301C54.3086 48.166 54.4277 47.5859 54.666 47.0898C54.9082 46.5938 55.248 46.207 55.6855 45.9297C56.127 45.6523 56.6426 45.5137 57.2324 45.5137C57.8262 45.5137 58.3359 45.6465 58.7617 45.9121C59.1914 46.1777 59.5215 46.5508 59.752 47.0312C59.9824 47.5078 60.0977 48.0664 60.0977 48.707V49.1523H54.9531V48.2441H59.4648L58.8555 49.0879V48.5781C58.8555 48.125 58.7852 47.75 58.6445 47.4531C58.5078 47.1523 58.3184 46.9277 58.0762 46.7793C57.834 46.6309 57.5547 46.5566 57.2383 46.5566C56.9219 46.5566 56.6387 46.6348 56.3887 46.791C56.1426 46.9434 55.9473 47.1699 55.8027 47.4707C55.6621 47.7715 55.5918 48.1406 55.5918 48.5781V49.0879C55.5918 49.5059 55.6621 49.8633 55.8027 50.1602C55.9434 50.457 56.1426 50.6836 56.4004 50.8398C56.6621 50.9961 56.9707 51.0742 57.3262 51.0742C57.5996 51.0742 57.834 51.0371 58.0293 50.9629C58.2285 50.8848 58.3906 50.7891 58.5156 50.6758C58.6445 50.5625 58.7324 50.4512 58.7793 50.3418L58.8027 50.2949H60.0332L60.0215 50.3477C59.9668 50.5586 59.8711 50.7695 59.7344 50.9805C59.5977 51.1875 59.416 51.377 59.1895 51.5488C58.9668 51.7207 58.6973 51.8594 58.3809 51.9648C58.0684 52.0703 57.707 52.123 57.2969 52.123ZM61.6094 52V45.6367H62.8809V46.5977H62.9805C63.0938 46.2578 63.293 45.9941 63.5781 45.8066C63.8672 45.6191 64.2227 45.5254 64.6445 45.5254C64.75 45.5254 64.8535 45.5312 64.9551 45.543C65.0566 45.5547 65.1387 45.5684 65.2012 45.584V46.7559C65.0879 46.7324 64.9746 46.7148 64.8613 46.7031C64.752 46.6914 64.6367 46.6855 64.5156 46.6855C64.1914 46.6855 63.9062 46.748 63.6602 46.873C63.418 46.998 63.2266 47.1738 63.0859 47.4004C62.9492 47.623 62.8809 47.8887 62.8809 48.1973V52H61.6094ZM69.8125 52.1055C69.5156 52.1055 69.2422 52.0625 68.9922 51.9766C68.7422 51.8867 68.5195 51.7598 68.3242 51.5957C68.1328 51.4277 67.9766 51.2285 67.8555 50.998H67.7559V52H66.4844V43.1406H67.7559V46.6445H67.8555C67.9688 46.4141 68.123 46.2168 68.3184 46.0527C68.5137 45.8848 68.7383 45.7559 68.9922 45.666C69.2461 45.5723 69.5195 45.5254 69.8125 45.5254C70.3516 45.5254 70.8184 45.6602 71.2129 45.9297C71.6074 46.1953 71.9121 46.5742 72.127 47.0664C72.3418 47.5586 72.4492 48.1406 72.4492 48.8125V48.8242C72.4492 49.4922 72.3398 50.0723 72.1211 50.5645C71.9062 51.0566 71.6016 51.4375 71.207 51.707C70.8125 51.9727 70.3477 52.1055 69.8125 52.1055ZM69.4492 51.0156C69.8047 51.0156 70.1094 50.9277 70.3633 50.752C70.6172 50.5762 70.8105 50.3242 70.9434 49.9961C71.0801 49.668 71.1484 49.2773 71.1484 48.8242V48.8125C71.1484 48.3555 71.0801 47.9648 70.9434 47.6406C70.8105 47.3125 70.6172 47.0605 70.3633 46.8848C70.1094 46.7051 69.8047 46.6152 69.4492 46.6152C69.0977 46.6152 68.793 46.7051 68.5352 46.8848C68.2773 47.0605 68.0801 47.3125 67.9434 47.6406C67.8066 47.9688 67.7383 48.3594 67.7383 48.8125V48.8242C67.7383 49.2734 67.8066 49.6641 67.9434 49.9961C68.0801 50.3242 68.2773 50.5762 68.5352 50.752C68.793 50.9277 69.0977 51.0156 69.4492 51.0156ZM76.6562 52.123C76.0352 52.123 75.498 51.9902 75.0449 51.7246C74.5957 51.459 74.25 51.0801 74.0078 50.5879C73.7656 50.0918 73.6445 49.5039 73.6445 48.8242V48.8125C73.6445 48.1289 73.7656 47.541 74.0078 47.0488C74.2539 46.5566 74.6016 46.1777 75.0508 45.9121C75.5039 45.6465 76.0391 45.5137 76.6562 45.5137C77.2773 45.5137 77.8125 45.6465 78.2617 45.9121C78.7109 46.1738 79.0566 46.5527 79.2988 47.0488C79.5449 47.541 79.668 48.1289 79.668 48.8125V48.8242C79.668 49.5039 79.5449 50.0918 79.2988 50.5879C79.0566 51.0801 78.7109 51.459 78.2617 51.7246C77.8164 51.9902 77.2812 52.123 76.6562 52.123ZM76.6562 51.0566C77.0195 51.0566 77.3281 50.9688 77.582 50.793C77.8359 50.6133 78.0293 50.3574 78.1621 50.0254C78.2949 49.6934 78.3613 49.293 78.3613 48.8242V48.8125C78.3613 48.3398 78.2949 47.9375 78.1621 47.6055C78.0293 47.2734 77.8359 47.0195 77.582 46.8438C77.3281 46.6641 77.0195 46.5742 76.6562 46.5742C76.293 46.5742 75.9844 46.6641 75.7305 46.8438C75.4766 47.0195 75.2812 47.2734 75.1445 47.6055C75.0117 47.9375 74.9453 48.3398 74.9453 48.8125V48.8242C74.9453 49.293 75.0117 49.6934 75.1445 50.0254C75.2812 50.3574 75.4766 50.6133 75.7305 50.793C75.9844 50.9688 76.293 51.0566 76.6562 51.0566ZM82.9258 52.1055C82.5234 52.1055 82.1621 52.0293 81.8418 51.877C81.5254 51.7207 81.2754 51.5 81.0918 51.2148C80.9082 50.9297 80.8164 50.5957 80.8164 50.2129V50.2012C80.8164 49.8184 80.9082 49.4922 81.0918 49.2227C81.2793 48.9531 81.5488 48.7422 81.9004 48.5898C82.2559 48.4336 82.6855 48.3398 83.1895 48.3086L85.5391 48.168V49.0645L83.3652 49.2051C82.9277 49.2324 82.6055 49.3262 82.3984 49.4863C82.1914 49.6426 82.0879 49.8633 82.0879 50.1484V50.1602C82.0879 50.4492 82.1992 50.6777 82.4219 50.8457C82.6445 51.0098 82.9258 51.0918 83.2656 51.0918C83.582 51.0918 83.8633 51.0293 84.1094 50.9043C84.3594 50.7754 84.5547 50.6035 84.6953 50.3887C84.8359 50.1699 84.9062 49.9238 84.9062 49.6504V47.6465C84.9062 47.2949 84.7969 47.0273 84.5781 46.8438C84.3633 46.6562 84.043 46.5625 83.6172 46.5625C83.2617 46.5625 82.9707 46.625 82.7441 46.75C82.5215 46.875 82.373 47.0508 82.2988 47.2773L82.2871 47.2949H81.0625L81.0684 47.2539C81.1191 46.9023 81.2578 46.5977 81.4844 46.3398C81.7148 46.0781 82.0156 45.875 82.3867 45.7305C82.7617 45.5859 83.1895 45.5137 83.6699 45.5137C84.2051 45.5137 84.6582 45.5996 85.0293 45.7715C85.4043 45.9395 85.6875 46.1836 85.8789 46.5039C86.0742 46.8203 86.1719 47.2012 86.1719 47.6465V52H84.9062V51.0977H84.8125C84.6875 51.3125 84.5312 51.4961 84.3438 51.6484C84.1562 51.7969 83.9434 51.9102 83.7051 51.9883C83.4668 52.0664 83.207 52.1055 82.9258 52.1055ZM87.9648 52V45.6367H89.2363V46.5977H89.3359C89.4492 46.2578 89.6484 45.9941 89.9336 45.8066C90.2227 45.6191 90.5781 45.5254 91 45.5254C91.1055 45.5254 91.209 45.5312 91.3105 45.543C91.4121 45.5547 91.4941 45.5684 91.5566 45.584V46.7559C91.4434 46.7324 91.3301 46.7148 91.2168 46.7031C91.1074 46.6914 90.9922 46.6855 90.8711 46.6855C90.5469 46.6855 90.2617 46.748 90.0156 46.873C89.7734 46.998 89.582 47.1738 89.4414 47.4004C89.3047 47.623 89.2363 47.8887 89.2363 48.1973V52H87.9648ZM94.9375 52.1055C94.4062 52.1055 93.9414 51.9727 93.543 51.707C93.1484 51.4375 92.8418 51.0566 92.623 50.5645C92.4082 50.0723 92.3008 49.4922 92.3008 48.8242V48.8125C92.3008 48.1406 92.4082 47.5586 92.623 47.0664C92.8379 46.5742 93.1426 46.1953 93.5371 45.9297C93.9316 45.6602 94.3984 45.5254 94.9375 45.5254C95.2305 45.5254 95.5039 45.5723 95.7578 45.666C96.0117 45.7559 96.2363 45.8848 96.4316 46.0527C96.627 46.2168 96.7812 46.4141 96.8945 46.6445H96.9883V43.1406H98.2656V52H96.9883V50.998H96.8945C96.7695 51.2285 96.6113 51.4277 96.4199 51.5957C96.2285 51.7598 96.0078 51.8867 95.7578 51.9766C95.5078 52.0625 95.2344 52.1055 94.9375 52.1055ZM95.3008 51.0156C95.6523 51.0156 95.957 50.9277 96.2148 50.752C96.4727 50.5762 96.6699 50.3242 96.8066 49.9961C96.9434 49.6641 97.0117 49.2734 97.0117 48.8242V48.8125C97.0117 48.3594 96.9414 47.9688 96.8008 47.6406C96.6641 47.3125 96.4668 47.0605 96.209 46.8848C95.9551 46.7051 95.6523 46.6152 95.3008 46.6152C94.9492 46.6152 94.6445 46.7051 94.3867 46.8848C94.1328 47.0605 93.9375 47.3125 93.8008 47.6406C93.668 47.9648 93.6016 48.3555 93.6016 48.8125V48.8242C93.6016 49.2773 93.668 49.668 93.8008 49.9961C93.9375 50.3242 94.1328 50.5762 94.3867 50.752C94.6445 50.9277 94.9492 51.0156 95.3008 51.0156Z" fill="#8E8E93"/>
</svg>
